<?xml version="1.0" encoding="UTF-8" standalone="no"?>
<svg version="1.1" xmlns="http://www.w3.org/2000/svg" xmlns:xlink="http://www.w3.org/1999/xlink" width="650" height="222">
	<g id="dp_dp001" transform="matrix(1,0,0,1,87.4493,-272.611)">
		<path id="dp_path002" fill="#ec8d21" fill-rule="evenodd" stroke="none" stroke-width="0" d="M 449.551,344.659 C 448.513,345.985 447.944,346.508 446.357,347.045 C 444.551,347.659 442.744,348.272 440.937,348.884 C 440.68,349.4 440.421,349.917 440.164,350.433 C 437.864,350.712 436.919,351.192 435.051,352.711 C 432.428,354.844 430.06,355.825 426.937,356.884 C 426.68,357.4 426.421,357.917 426.164,358.433 C 424.161,358.676 423.197,358.953 421.551,360.211 C 420.508,361.007 419.431,361.659 419.155,361.659 C 417.948,361.659 416.496,363.743 415.655,364.555 C 414.749,364.664 413.844,364.775 412.937,364.884 C 412.68,365.4 412.421,365.917 412.164,366.433 C 410.315,366.657 406.551,367.648 406.551,369.909 C 406.551,369.659 406.551,370.659 406.551,370.659 C 408.259,370.659 411.257,370.209 413.216,369.659 C 415.175,369.108 418.004,368.659 419.505,368.659 C 423.028,368.659 424.364,365.337 425.301,362.461 C 425.713,361.195 426.487,360.159 427.02,360.159 C 427.553,360.159 428.341,361.42 428.771,362.961 C 429.188,364.461 429.585,365.831 430.301,367.211 C 430.857,368.285 433.048,368.659 438.801,368.659 C 440.551,368.659 444.551,368.659 446.551,368.659 C 447.593,367.067 448.469,365.44 448.499,365.044 C 448.571,364.052 448.551,363.059 448.551,362.064 C 448.551,360.429 449.032,359.424 450.248,358.468 C 450.98,355.567 451.713,352.665 452.447,349.763 C 452.536,348.256 452.625,346.748 452.715,345.241 L 452.133,344.949 C 451.551,344.659 451.551,344.659 451.551,344.659 C 450.551,344.659 450.551,344.659 449.551,344.659 Z "/>
		<path id="dp_path003" fill="#ec8d21" fill-rule="evenodd" stroke="none" stroke-width="0" d="M 497.551,434.659 C 496.551,437.659 496.551,437.659 495.551,438.659 C 494.892,444.092 493.824,449.175 491.625,454.159 C 490.891,454.159 491.009,454.716 490.847,455.409 C 490.551,455.659 490.551,456.659 490.551,456.659 C 491.925,455.971 492.508,456.084 492.683,457.072 C 492.815,457.819 493.537,458.505 494.288,458.596 C 495.745,458.775 498.551,460.289 498.551,461.909 C 498.551,461.659 498.551,462.659 498.551,462.659 C 500.551,461.659 500.551,461.659 502.551,460.659 C 504.367,459.469 506.039,458.691 508.164,458.433 C 508.421,457.917 508.68,457.4 508.937,456.884 C 510.44,456.476 511.944,456.067 513.447,455.659 C 512.183,455.325 510.919,454.992 509.655,454.659 L 512.103,454.659 C 513.449,454.659 514.551,454.209 514.551,453.659 C 514.551,453.659 514.551,452.659 514.551,452.659 L 513.447,447.555 C 512.26,443.996 510.439,440.853 508.649,437.553 L 508.1,436.107 C 507.551,435.659 507.551,434.659 507.551,434.659 L 503.447,436.659 C 502.183,436.659 500.919,436.659 499.655,436.659 C 499.205,436.433 498.847,435.955 498.499,435.607 C 498.551,435.659 497.551,434.659 497.551,434.659 Z "/>
		<path id="dp_path004" fill="#ec8d21" fill-rule="evenodd" stroke="none" stroke-width="0" d="M 540.551,435.659 L 532.447,434.659 L 529.499,434.659 C 527.217,434.659 526.551,435.111 526.551,436.659 C 526.551,437.759 526.101,438.659 525.551,438.659 C 525.551,438.659 524.551,438.659 524.551,438.659 C 522.496,441.849 520.796,445.731 520.603,449.607 C 520.551,449.659 520.551,450.659 520.551,450.659 C 522.367,449.469 524.039,448.691 526.164,448.433 C 527.729,445.3 532.879,442.832 536.164,442.433 C 536.737,441.284 537.377,440.659 538.801,440.659 C 539.551,440.659 540.551,440.659 540.551,440.659 C 540.551,436.659 540.551,436.659 540.551,435.659 Z "/>
		<path id="dp_path005" fill="#ec8d21" fill-rule="evenodd" stroke="none" stroke-width="0" d="M 553.551,276.659 C 551.351,276.659 549.325,277.109 549.051,277.659 C 548.776,278.209 549.451,278.659 550.551,278.659 C 551.551,278.659 552.551,278.659 552.551,278.659 L 556.641,278.659 C 556.46,277.992 556.277,277.325 556.096,276.659 L 554.824,276.659 C 554.551,276.659 553.551,276.659 553.551,276.659 Z "/>
		<path id="dp_path006" fill="#b7d430" fill-rule="evenodd" stroke="none" stroke-width="0" d="M 446.551,368.659 C 444.551,368.659 440.551,368.659 438.801,368.659 C 433.048,368.659 430.857,368.285 430.301,367.211 C 429.585,365.831 429.188,364.461 428.771,362.961 C 428.341,361.42 427.553,360.159 427.02,360.159 C 426.487,360.159 425.713,361.195 425.301,362.461 C 424.364,365.337 423.028,368.659 419.505,368.659 C 418.004,368.659 415.175,369.108 413.216,369.659 C 411.257,370.209 408.259,370.659 406.551,370.659 C 404.4,370.659 402.519,371.108 402.369,371.659 L 402.096,372.659 L 401.324,372.659 C 401.551,372.659 400.551,372.659 400.551,372.659 C 398.496,372.853 396.388,374.612 394.655,375.659 C 394.953,375.992 395.252,376.325 395.551,376.659 L 393.551,376.659 C 392.451,376.659 391.776,377.108 392.051,377.659 C 392.325,378.209 391.671,378.659 390.596,378.659 C 389.14,378.659 388.507,379.155 388.157,380.433 C 385.316,380.779 383.068,382.2 380.655,383.659 C 380.953,383.992 381.252,384.325 381.551,384.659 L 379.551,384.659 C 378.451,384.659 377.776,385.108 378.051,385.659 C 378.325,386.209 377.651,386.659 376.551,386.659 C 375.451,386.659 374.551,387.108 374.551,387.659 C 374.551,387.659 374.551,388.659 374.551,388.659 L 386.04,388.659 C 386.879,401.972 386.551,415.321 386.551,428.659 L 390.447,426.763 C 391.335,426.609 391.945,426.264 392.603,425.607 C 392.551,425.659 393.551,424.659 393.551,424.659 C 393.551,419.444 394.287,414.612 395.551,409.555 C 397.156,403.74 400.755,399.455 404.947,395.263 C 407.637,392.572 411.548,391.109 415.077,389.749 C 420.34,387.723 427.061,387.457 432.603,388.159 C 433.551,388.659 435.551,388.659 436.551,388.659 C 436.744,387.767 437.521,386.928 438.279,386.796 C 439.907,386.509 441.117,385.304 442.325,384.272 C 442.537,383.067 442.749,381.863 442.963,380.659 L 443.756,380.659 C 443.551,380.659 444.551,380.659 444.551,380.659 C 444.551,377.409 445.001,374.627 445.551,374.477 C 446.1,374.327 446.551,373.632 446.551,372.932 C 446.551,372.659 446.551,371.659 446.551,371.659 C 446.551,370.825 446.551,369.992 446.551,369.159 C 446.551,368.659 446.551,368.659 446.551,368.659 Z "/>
		<path id="dp_path007" fill="#b7d430" fill-rule="evenodd" stroke="none" stroke-width="0" d="M 372.551,442.659 C 369.859,439.416 367.407,436.515 367.103,436.211 L 366.551,435.659 C 358.98,428.088 351.869,420.128 344.551,412.309 L 344.551,432.484 C 344.551,451.992 344.484,452.659 342.551,452.659 C 342.551,452.659 341.551,452.659 340.551,452.659 C 340.743,454.688 343.128,456.236 344.551,457.659 C 345.217,458.325 345.8,458.992 346.301,459.659 C 346.968,460.548 347.133,460.659 347.801,460.659 C 347.551,460.659 348.551,460.659 348.551,460.659 L 349.551,460.659 C 351.551,458.659 351.551,458.659 353.551,458.659 C 352.721,457 352.884,456.659 354.505,456.659 C 356.068,456.659 356.641,455.993 357.005,454.659 L 357.777,454.659 C 357.551,454.659 358.551,454.659 358.551,454.659 C 358.683,453.264 360.315,450.659 361.801,450.659 C 361.551,450.659 362.551,450.659 362.551,450.659 C 366.551,447.659 366.551,447.659 368.551,446.659 C 368.683,445.264 370.315,442.659 371.801,442.659 C 371.551,442.659 372.551,442.659 372.551,442.659 Z "/>
		<path id="dp_path008" fill="#b7d430" fill-rule="evenodd" stroke="none" stroke-width="0" d="M 547.551,386.659 C 544.769,386.797 542.917,389.292 541.103,391.107 C 539.828,392.381 539.055,392.659 537.384,392.659 C 537.551,392.659 536.551,392.659 536.551,392.659 C 536.391,398.935 533.613,405.139 531.999,411.159 C 530.957,415.039 529.8,418.844 528.551,422.659 C 527.884,424.992 527.217,427.325 526.551,429.659 C 525.884,431.693 525.217,433.728 524.551,435.763 L 524.551,437.211 C 524.551,437.659 524.551,438.659 524.551,438.659 C 524.551,438.659 525.551,438.659 525.551,438.659 C 526.101,438.659 526.551,437.759 526.551,436.659 C 526.551,435.111 527.217,434.659 529.499,434.659 L 532.447,434.659 L 540.551,435.659 C 543.067,430.136 542.381,423.936 543.103,418.055 C 543.537,414.513 544.228,411.133 545.051,407.659 C 546.671,400.816 547.551,393.699 547.551,386.659 Z "/>
		<path id="dp_path009" fill="#b7d430" fill-rule="evenodd" stroke="none" stroke-width="0" d="M 374.551,388.659 C 372.4,388.659 370.535,389.051 370.404,389.529 C 370.007,390.985 368.02,391.169 366.655,391.659 C 366.953,391.992 367.252,392.325 367.551,392.659 L 365.551,392.659 C 364.451,392.659 363.776,393.108 364.051,393.659 C 364.325,394.209 363.671,394.659 362.596,394.659 C 361.14,394.659 360.507,395.155 360.157,396.433 C 356.999,396.817 354.335,397.875 351.999,400.211 C 351.551,400.659 350.551,401.659 350.551,401.659 C 357.497,409.308 364.464,416.937 371.447,424.555 L 372.447,425.107 C 373.147,425.493 373.848,425.877 374.551,426.259 C 374.551,413.725 374.551,401.192 374.551,388.659 Z "/>
		<path id="dp_path010" fill="#b7d430" fill-rule="evenodd" stroke="none" stroke-width="0" d="M 332.551,412.659 C 331.708,412.237 330.307,412.488 329.353,413.232 C 327.971,414.308 326.619,414.68 324.937,414.884 C 324.476,415.476 324.013,416.067 323.551,416.659 C 321.524,419.361 317.62,418.659 314.551,418.659 L 316.551,422.659 C 317.527,422.875 318.491,423.987 318.693,425.131 C 319.015,426.957 319.197,427.019 320.205,425.633 C 320.973,424.579 321.699,423.512 322.399,422.411 C 323.271,421.04 323.585,419.619 323.776,418.045 C 324.667,417.584 325.556,417.121 326.447,416.659 C 327.225,415.484 325.955,417.475 325.716,417.856 C 324.847,419.248 324.519,420.681 324.325,422.272 C 322.932,422.968 322.689,423.301 322.164,424.852 C 321.821,425.86 321.469,426.847 321.051,427.825 C 320.665,428.724 320.551,429.347 320.551,430.325 C 320.551,430.659 320.551,431.659 320.551,431.659 L 321.551,436.659 L 322.551,436.659 C 324.58,436.851 326.128,439.236 327.551,440.659 C 328.367,441.475 329.183,442.291 329.999,443.107 C 331.263,444.371 331.516,444.561 331.999,444.607 C 332.551,444.659 332.551,444.659 332.551,444.659 Z "/>
		<path id="dp_path011" fill="#b7d430" fill-rule="evenodd" stroke="none" stroke-width="0" d="M 500.551,422.659 C 500.551,424.809 500.1,426.691 499.551,426.84 C 499.001,426.991 498.551,428.563 498.551,430.333 L 498.551,433.555 C 497.884,432.291 497.217,431.027 496.551,429.763 L 496.551,431.211 C 496.551,431.659 496.551,432.659 496.551,432.659 L 496.551,433.659 C 496.884,433.659 497.217,433.659 497.551,433.659 L 497.551,434.159 C 497.551,434.659 497.551,434.659 497.551,434.659 C 497.551,434.659 498.551,435.659 498.499,435.607 C 498.847,435.955 499.205,436.433 499.655,436.659 C 500.919,436.659 502.183,436.659 503.447,436.659 L 507.551,434.659 C 505.901,430.732 504.443,426.809 503.519,422.659 L 503.035,422.659 C 502.551,422.659 502.551,422.659 502.551,422.659 C 501.551,422.659 501.551,422.659 500.551,422.659 Z "/>
		<path id="dp_path012" fill="#b7d430" fill-rule="evenodd" stroke="none" stroke-width="0" d="M 520.551,404.659 C 518.551,405.659 518.551,405.659 517.551,407.659 C 519.337,408.056 518.729,409.3 518.164,410.433 L 516.805,410.599 C 515.949,410.703 515.096,411.113 514.499,411.711 C 514.551,411.659 513.551,412.659 513.551,412.659 C 512.551,415.659 512.551,415.659 512.551,416.659 C 513.593,419.351 514.5,422.265 514.564,423.133 C 514.655,424.347 515.116,424.595 516.127,424.32 C 517.233,420.801 518.34,417.283 519.447,413.763 C 519.815,412.228 520.183,410.693 520.551,409.159 L 520.551,407.409 C 520.551,406.659 520.551,405.659 520.551,405.659 Z "/>
		<path id="dp_path013" fill="#b7d430" fill-rule="evenodd" stroke="none" stroke-width="0" d="M 552.551,278.659 C 554.44,279.759 557.464,280.659 559.268,280.659 C 562.444,280.659 562.551,280.525 562.551,276.559 C 562.551,273.455 562.173,272.496 560.999,272.611 C 558.42,272.864 555.88,274.392 553.551,275.456 L 553.551,276.057 C 553.551,276.659 553.551,276.659 553.551,276.659 C 553.551,276.659 554.551,276.659 554.824,276.659 L 556.096,276.659 C 556.277,277.325 556.46,277.992 556.641,278.659 Z "/>
		<path id="dp_path014" fill="#4c555a" fill-rule="evenodd" stroke="none" stroke-width="0" d="M -39.4493,395.909 C -39.4493,395.483 -40.076,395.659 -40.4493,395.659 C -41.1373,401.232 -41.4493,406.579 -41.4493,412.211 C -41.4493,416.857 -41,420.884 -40.4493,421.159 L -39.4493,421.659 C -39.4493,413.075 -39.4493,404.492 -39.4493,395.909 Z "/>
		<path id="dp_path015" fill="#4c555a" fill-rule="evenodd" stroke="none" stroke-width="0" d="M 224.551,418.992 L 224.551,395.659 C 224.217,395.659 223.884,395.659 223.551,395.659 C 223.551,412.291 223.551,428.923 223.551,445.555 C 223.884,444.477 224.217,443.401 224.551,442.325 Z "/>
		<path id="dp_path016" fill="#4c555a" fill-rule="evenodd" stroke="none" stroke-width="0" d="M -77.5773,422.264 L -77.8613,420.659 L -78.6547,420.659 C -79.092,420.659 -79.4493,427.611 -79.4493,436.107 L -79.4493,451.555 L -78.8587,449.424 L -78.268,447.295 L -77.8587,446.924 C -76.9413,446.095 -77.804,443.713 -77.9493,442.555 C -78.7173,436.412 -77.7773,430.012 -77.2947,423.869 Z "/>
		<path id="dp_path017" fill="#4c555a" fill-rule="evenodd" stroke="none" stroke-width="0" d="M 288.551,424.992 L 288.551,404.659 C 288.217,404.659 287.884,404.659 287.551,404.659 C 287.551,419.291 287.551,433.923 287.551,448.555 C 287.884,447.477 288.217,446.401 288.551,445.325 Z "/>
		<path id="dp_path018" fill="#4c555a" fill-rule="evenodd" stroke="none" stroke-width="0" d="M 212.551,430.659 C 210.299,429.06 209.551,427.431 209.551,424.659 C 209.551,422.913 209.959,421.759 210.608,420.159 C 210.895,420.159 209.525,417.608 209.301,417.159 C 208.704,417.159 208.816,417.488 208.712,418.076 C 207.976,422.247 208.551,426.924 208.551,431.159 C 207.539,431.159 209.033,432.861 209.329,433.409 C 209.551,433.659 210.551,434.659 210.551,435.659 Z "/>
		<path id="dp_path019" fill="#4c555a" fill-rule="evenodd" stroke="none" stroke-width="0" d="M 11.6293,420.159 C 10.42,419.161 9.6,418.659 9.18133,418.659 C 8.21467,418.659 7.47733,419.265 6.644,419.737 C 5.596,420.329 3.99733,420.555 3.092,420.237 C -0.238667,419.067 -4.89067,420.305 -8.34533,420.659 C -5.05867,421.676 -2.13867,421.659 1.35333,421.659 C 4.912,421.659 8.41333,422.121 9.13333,422.688 C 10.2133,423.536 10.5667,423.267 10.8693,422.159 C 11.728,421.992 12.5867,421.825 13.4467,421.659 Z "/>
		<path id="dp_path020" fill="#4c555a" fill-rule="evenodd" stroke="none" stroke-width="0" d="M 268.551,411.659 C 265.776,411.267 265.305,410.843 265.731,409.115 C 266.223,407.116 265.433,405.473 264.551,403.763 C 264.551,407.228 264.551,410.693 264.551,414.159 C 264.475,414.159 264.957,415.696 265.021,415.909 C 265.551,416.659 265.551,417.659 265.551,417.659 C 267.551,413.659 267.551,413.659 268.551,411.659 Z "/>
		<path id="dp_path021" fill="#4c555a" fill-rule="evenodd" stroke="none" stroke-width="0" d="M 151.551,433.659 C 151.551,431.001 151.804,428.448 152.121,425.807 C 152.525,422.451 152.339,421.059 151.485,421.059 C 150.631,421.059 150.497,422.077 151.028,424.555 C 151.509,426.799 151.379,428.34 150.664,428.855 C 150.551,428.659 149.551,429.659 149.551,429.659 Z "/>
		<path id="dp_path022" fill="#4c555a" fill-rule="evenodd" stroke="none" stroke-width="0" d="M 312.551,398.659 C 309.851,398.659 307.527,398.235 307.385,397.717 C 307.077,396.588 304.415,398.736 303.779,399.051 C 303.551,399.659 302.551,399.659 302.551,399.659 L 306.551,400.659 C 307.708,400.108 309.532,399.809 310.603,399.992 C 311.675,400.176 312.551,399.951 312.551,399.492 C 312.551,399.659 312.551,398.659 312.551,398.659 Z "/>
		<path id="dp_path023" fill="#4c555a" fill-rule="evenodd" stroke="none" stroke-width="0" d="M 37.5507,449.659 C 39.616,448.229 40.7613,448.396 42.5507,449.801 L 42.5507,447.171 C 42.5507,444.313 41.0227,444.387 38.9987,445.711 C 38.5507,445.659 37.5507,446.659 37.5507,446.659 C 37.5507,447.492 37.5507,448.325 37.5507,449.159 C 37.5507,449.659 37.5507,449.659 37.5507,449.659 Z "/>
		<path id="dp_path024" fill="#4c555a" fill-rule="evenodd" stroke="none" stroke-width="0" d="M 141.551,422.659 L 138.655,421.659 C 138.655,421.325 138.655,420.992 138.655,420.659 C 136.74,421.027 136.221,421.363 137.328,423.404 C 137.551,423.659 138.551,424.659 138.551,425.659 Z "/>
		<path id="dp_path025" fill="#4c555a" fill-rule="evenodd" stroke="none" stroke-width="0" d="M -41.4493,448.659 L -36.636,445.752 L -39.8747,445.121 C -41.656,444.775 -43.4133,444.753 -43.7813,445.075 C -43.4493,445.659 -44.4493,445.659 -44.4493,445.659 Z "/>
		<path id="dp_path026" fill="#4c555a" fill-rule="evenodd" stroke="none" stroke-width="0" d="M 15.832,397.159 C 11.2013,395.725 5.38267,396.659 0.550667,396.659 C 1.328,396.992 2.10667,397.325 2.884,397.659 C 7.73867,397.659 12.592,397.659 17.4467,397.659 Z "/>
		<path id="dp_path027" fill="#4c555a" fill-rule="evenodd" stroke="none" stroke-width="0" d="M 66.5507,400.659 L 64.348,402.247 C 64.772,404.336 66.3053,405.983 67.5507,407.659 L 68.0507,407.159 C 68.5507,406.659 68.5507,406.659 68.5507,406.659 C 67.5507,401.659 67.5507,401.659 66.5507,400.659 Z "/>
		<path id="dp_path028" fill="#4c555a" fill-rule="evenodd" stroke="none" stroke-width="0" d="M 136.551,391.659 C 136.551,396.356 136.744,396.811 138.551,396.367 L 140.551,395.875 L 140.551,395.267 C 140.551,394.659 140.551,394.659 140.551,394.659 C 137.551,391.659 137.551,391.659 136.551,391.659 Z "/>
		<path id="dp_path029" fill="#4c555a" fill-rule="evenodd" stroke="none" stroke-width="0" d="M 198.551,408.659 C 199.763,407.785 200.587,406.457 200.383,405.708 C 199.847,403.745 196.857,405.659 195.551,405.659 Z "/>
		<path id="dp_path030" fill="#4c555a" fill-rule="evenodd" stroke="none" stroke-width="0" d="M 266.551,447.659 C 265.249,447.961 264.56,448.677 264.905,449.368 C 265.232,450.021 265.061,451.029 264.525,451.608 C 264.551,451.659 263.551,452.659 263.551,452.659 C 266.884,452.659 267.551,452.325 267.551,450.659 L 267.551,448.659 L 267.051,448.159 C 266.551,447.659 266.551,447.659 266.551,447.659 Z "/>
		<path id="dp_path031" fill="#4c555a" fill-rule="evenodd" stroke="none" stroke-width="0" d="M 52.5507,428.659 L 51.4467,429.659 C 50.8973,429.492 50.3493,429.325 49.8013,429.159 C 49.1653,430.429 49.08,431.461 49.712,432.836 C 49.5507,433.659 50.5507,434.659 50.5507,434.659 Z "/>
		<path id="dp_path032" fill="#4c555a" fill-rule="evenodd" stroke="none" stroke-width="0" d="M 7.832,416.159 C 4.32267,415.072 0.209333,415.659 -3.44933,415.659 C 0.561333,417.377 5.12133,416.659 9.44667,416.659 Z "/>
		<path id="dp_path033" fill="#4c555a" fill-rule="evenodd" stroke="none" stroke-width="0" d="M 32.5507,416.107 C 32.5507,413.809 31.9013,410.725 29.1027,412.659 C 26.9587,414.14 29.812,413.721 30.8333,414.523 C 32.004,415.443 32.1693,418.133 32.5507,419.555 Z "/>
		<path id="dp_path034" fill="#4c555a" fill-rule="evenodd" stroke="none" stroke-width="0" d="M 165.551,406.659 L 161.551,406.659 L 162.077,405.607 C 162.367,405.027 162.141,404.68 161.577,404.833 C 161.012,404.987 160.551,406.337 160.551,407.833 L 160.551,410.555 L 161.251,409.207 C 161.636,408.465 162.311,408.039 162.751,408.259 C 162.551,408.659 163.551,408.659 163.551,408.659 Z "/>
		<path id="dp_path035" fill="#4c555a" fill-rule="evenodd" stroke="none" stroke-width="0" d="M 88.5507,400.909 C 88.5507,399.121 88.1013,397.659 87.5507,397.659 C 86.34,397.659 87.3053,399.247 87.5507,399.763 L 87.2173,401.961 C 87.0347,403.169 87.2587,404.159 87.7173,404.159 C 88.176,404.159 88.5507,402.696 88.5507,400.909 Z "/>
		<path id="dp_path036" fill="#525b60" fill-rule="evenodd" stroke="none" stroke-width="0" d="M 212.551,430.659 C 213.567,418.216 213.531,415.135 212.32,410.951 L 210.884,405.992 C 209.16,403.733 207.431,401.483 205.655,399.263 C 202.983,395.923 200.455,393.663 196.655,391.763 C 191.657,389.401 186.019,387.659 180.447,387.659 C 175.985,387.659 171.044,388.985 166.947,390.711 C 156.143,395.259 149.359,407.316 148.725,418.576 C 148.517,422.28 148.617,426.289 148.948,427.485 C 149.551,427.659 149.551,428.659 149.551,429.659 C 149.551,429.659 150.551,428.659 150.664,428.855 C 151.379,428.34 151.509,426.799 151.028,424.555 C 150.497,422.077 150.631,421.059 151.485,421.059 C 152.339,421.059 152.525,422.451 152.121,425.807 C 151.804,428.448 151.551,431.001 151.551,433.659 C 152.272,435.899 153.016,437.335 154.499,439.159 C 155.989,440.993 156.576,441.917 156.999,443.107 C 157.581,444.744 159.187,445.241 160.655,445.763 C 161.551,446.721 162.445,447.679 163.341,448.637 C 171.607,452.472 180.64,455.539 189.655,452.159 C 192.975,450.913 196.311,449.728 199.655,448.555 C 201.155,447.055 202.655,445.555 204.155,444.055 C 206.224,441.985 207.932,439.588 209.551,437.159 C 209.551,436.659 210.551,435.659 210.551,435.659 C 210.551,434.659 209.551,433.659 209.329,433.409 C 209.033,432.861 207.539,431.159 208.551,431.159 C 208.551,426.924 207.976,422.247 208.712,418.076 C 208.816,417.488 208.704,417.159 209.301,417.159 C 209.525,417.608 210.895,420.159 210.608,420.159 C 209.959,421.759 209.551,422.913 209.551,424.659 C 209.551,427.431 210.299,429.06 212.551,430.659 Z M 195.551,405.659 C 191.635,402.567 188.229,400.655 183.108,400.075 C 177.092,399.392 172.117,401.777 167.499,405.211 C 166.551,405.659 165.551,406.659 165.551,406.659 L 161.551,406.659 L 162.077,405.607 C 162.367,405.027 162.141,404.68 161.577,404.833 C 161.012,404.987 160.551,406.337 160.551,407.833 L 160.551,410.555 L 161.251,409.207 C 161.636,408.465 162.311,408.039 162.751,408.259 C 162.551,408.659 163.551,408.659 163.551,408.659 C 162.451,412.451 161.279,417.673 160.945,420.263 C 160.172,426.279 162.747,431.589 166.333,436.225 C 171.833,440.677 181.271,442.981 188.049,440.224 C 193.02,438.2 199.019,433.185 200.584,427.847 C 202.04,422.885 202.159,416.951 200.051,412.107 C 199.551,411.659 198.551,409.659 198.551,408.659 C 199.763,407.785 200.587,406.457 200.383,405.708 C 199.847,403.745 196.857,405.659 195.551,405.659 Z "/>
		<path id="dp_path037" fill="#525b60" fill-rule="evenodd" stroke="none" stroke-width="0" d="M 268.551,411.659 C 268.551,406.164 267.776,401.792 265.035,397.177 C 259.352,387.615 245.211,388.659 235.753,388.659 L 221.061,388.659 C 219.732,409.752 220.551,431.019 220.551,452.148 L 225,452.497 C 227.447,452.691 230.147,452.607 231,452.311 C 232.285,451.865 232.551,449.713 232.551,439.716 L 232.551,427.659 L 237.551,427.659 C 242.384,427.659 242.617,427.792 244.551,431.659 C 248.084,438.727 251.853,445.675 255.551,452.659 C 258.217,452.659 260.884,452.659 263.551,452.659 C 263.551,452.659 264.551,451.659 264.525,451.608 C 265.061,451.029 265.232,450.021 264.905,449.368 C 264.56,448.677 265.249,447.961 266.551,447.659 C 263.501,441.56 260.024,435.692 256.655,429.763 C 255.716,427.587 255.833,426.517 258.253,425.307 C 260.433,424.217 261.732,423.205 263.351,421.384 C 265.324,419.164 265.551,418.844 265.551,418.284 C 265.551,417.659 265.551,417.659 265.551,417.659 C 265.551,417.659 265.551,416.659 265.021,415.909 C 264.957,415.696 264.475,414.159 264.551,414.159 C 264.551,410.693 264.551,407.228 264.551,403.763 C 265.433,405.473 266.223,407.116 265.731,409.115 C 265.305,410.843 265.776,411.267 268.551,411.659 Z M 252.757,401.445 C 251.575,400.585 247.544,400.011 241.723,399.875 L 232.551,399.659 C 232.551,405.659 232.551,411.659 232.551,417.659 L 241.232,417.659 C 246.008,417.659 250.531,417.185 251.285,416.607 C 252.285,415.839 253.273,415.059 254.259,414.271 C 256.688,412.324 256.975,407.507 255.669,404.897 C 254.863,403.281 254.217,402.508 252.757,401.445 Z M 224.551,418.992 L 224.551,395.659 C 224.217,395.659 223.884,395.659 223.551,395.659 C 223.551,412.291 223.551,428.923 223.551,445.555 C 223.884,444.477 224.217,443.401 224.551,442.325 Z "/>
		<path id="dp_path038" fill="#525b60" fill-rule="evenodd" stroke="none" stroke-width="0" d="M 66.5507,400.659 L 65.4467,394.555 C 64.4813,392.624 63.516,390.693 62.5507,388.763 C 59.652,386.953 57.612,388.471 56.5187,391.647 C 55.6813,394.081 54.6787,396.341 53.5507,398.659 C 52.508,400.801 51.3827,403.727 51.0507,405.159 C 49.672,411.1 46.0653,416.931 43.6547,422.555 C 43.3773,423.832 43.1,425.109 42.824,426.385 C 39.968,416.548 37.3307,406.652 34.6547,396.763 L 33.9347,393.045 C 33.244,389.487 33.0187,389.309 28.5973,388.889 L 23.9813,388.451 C 20.104,389.508 21.7987,393.731 22.5507,396.659 C 23.42,400.044 24.4627,403.339 25.5507,406.659 C 26.3013,410.807 27.4573,414.737 29.0507,418.659 C 31.284,424.155 32.944,429.78 33.9987,435.607 C 34.672,439.329 35.9147,442.833 37.088,446.428 L 37.32,446.543 C 37.5507,446.659 37.5507,446.659 37.5507,446.659 C 37.5507,446.659 38.5507,445.659 38.9987,445.711 C 41.0227,444.387 42.5507,444.313 42.5507,447.171 L 42.5507,449.801 C 40.7613,448.396 39.616,448.229 37.5507,449.659 C 39.0773,452.712 40.124,453.717 41.436,453.395 C 42.4253,453.151 43.956,451.335 44.84,449.357 C 45.7227,447.381 46.4933,445.041 46.5507,444.159 C 46.608,443.276 47.532,440.777 48.6027,438.607 C 49.5507,437.659 50.5507,435.659 50.5507,434.659 C 50.5507,434.659 49.5507,433.659 49.712,432.836 C 49.08,431.461 49.1653,430.429 49.8013,429.159 C 50.3493,429.325 50.8973,429.492 51.4467,429.659 L 52.5507,428.659 L 54.5507,423.659 C 55.648,419.583 57.344,415.981 59.152,412.159 C 60.9507,412.159 61.124,414.341 61.7987,415.856 C 62.9547,418.451 63.816,420.927 64.5507,423.659 C 65.2173,425.325 65.884,426.992 66.5507,428.659 C 67.9653,433.913 70.1693,438.765 72.5507,443.659 C 73.6,445.815 74.6147,447.961 75.5333,450.176 C 76.1733,451.72 78.4987,454.98 80.248,452.576 C 80.72,451.927 81.656,449.003 82.328,446.079 C 83.7613,439.849 85.7947,433.805 87.5507,427.659 C 88.3013,423.511 89.4573,419.58 91.0507,415.659 C 94.132,408.075 96.1293,399.916 98.1573,391.979 C 98.852,389.265 98.752,389.185 94.2613,388.832 L 89.652,388.469 C 87.3413,389.269 86.3133,390.684 85.6027,393.136 C 82.4933,403.86 80.032,414.789 77.3173,425.619 C 76.7293,425.264 76.14,424.909 75.5507,424.555 C 74.5853,421.957 73.62,419.36 72.6547,416.763 C 71.6547,414.429 70.6547,412.096 69.6547,409.763 L 69.1027,408.211 C 68.5507,407.659 68.5507,406.659 68.5507,406.659 C 68.5507,406.659 68.5507,406.659 68.0507,407.159 L 67.5507,407.659 C 66.3053,405.983 64.772,404.336 64.348,402.247 Z M 32.5507,416.107 C 32.5507,413.809 31.9013,410.725 29.1027,412.659 C 26.9587,414.14 29.812,413.721 30.8333,414.523 C 32.004,415.443 32.1693,418.133 32.5507,419.555 Z M 88.5507,400.909 C 88.5507,399.121 88.1013,397.659 87.5507,397.659 C 86.34,397.659 87.3053,399.247 87.5507,399.763 L 87.2173,401.961 C 87.0347,403.169 87.2587,404.159 87.7173,404.159 C 88.176,404.159 88.5507,402.696 88.5507,400.909 Z "/>
		<path id="dp_path039" fill="#525b60" fill-rule="evenodd" stroke="none" stroke-width="0" d="M -41.4493,448.659 C -38.2987,452.023 -36.0267,453.667 -35.0147,453.316 C -33.6387,452.84 -33.4493,448.931 -33.4493,420.972 L -33.4493,389.169 L -37.8987,388.82 C -40.3453,388.627 -43.0453,388.711 -43.8987,389.007 C -45.2267,389.467 -45.4493,392.287 -45.4493,408.672 L -45.4493,427.801 C -46.5827,426.588 -47.7227,425.385 -48.8973,424.211 C -49.9933,423.115 -50.7907,421.988 -51.5533,420.659 C -56.1507,416.027 -60.748,411.395 -65.3453,406.763 C -71.172,400.936 -76.688,394.757 -82.3453,388.763 L -83.7973,388.136 C -84.596,387.791 -85.744,388.188 -86.3493,389.021 C -87.0907,390.04 -87.4493,400.189 -87.4493,420.148 C -87.4493,436.436 -87.112,450.415 -86.6987,451.211 C -86.1893,452.196 -84.2693,452.659 -80.6987,452.659 L -75.4493,452.659 C -75.4493,439.193 -75.4493,425.728 -75.4493,412.263 C -65.0013,423.221 -54.7853,434.393 -44.5533,445.555 L -44.5013,445.607 C -44.4493,445.659 -44.4493,445.659 -44.4493,445.659 C -44.4493,445.659 -43.4493,445.659 -43.7813,445.075 C -43.4133,444.753 -41.656,444.775 -39.8747,445.121 L -36.636,445.752 Z M -39.4493,395.909 C -39.4493,395.483 -40.076,395.659 -40.4493,395.659 C -41.1373,401.232 -41.4493,406.579 -41.4493,412.211 C -41.4493,416.857 -41,420.884 -40.4493,421.159 L -39.4493,421.659 C -39.4493,413.075 -39.4493,404.492 -39.4493,395.909 Z M -77.5773,422.264 L -77.8613,420.659 L -78.6547,420.659 C -79.092,420.659 -79.4493,427.611 -79.4493,436.107 L -79.4493,451.555 L -78.8587,449.424 L -78.268,447.295 L -77.8587,446.924 C -76.9413,446.095 -77.804,443.713 -77.9493,442.555 C -78.7173,436.412 -77.7773,430.012 -77.2947,423.869 Z "/>
		<path id="dp_path040" fill="#525b60" fill-rule="evenodd" stroke="none" stroke-width="0" d="M 136.551,391.659 C 128.556,388.392 118.956,389.06 110.447,388.659 L 108.044,388.659 C 106.723,388.659 105.171,389.305 104.596,390.096 C 103.925,391.017 103.551,401.979 103.551,420.648 C 103.551,436.661 103.888,450.415 104.301,451.211 C 104.804,452.181 106.697,452.659 110.045,452.659 L 115.04,452.659 C 115.524,444.983 115.551,437.352 115.551,429.659 L 122.603,429.659 C 127.385,429.659 132.991,429.5 137.103,426.659 C 137.551,426.659 138.551,425.659 138.551,425.659 C 138.551,424.659 137.551,423.659 137.328,423.404 C 136.221,421.363 136.74,421.027 138.655,420.659 C 138.655,420.992 138.655,421.325 138.655,421.659 L 141.551,422.659 C 145.535,419.469 146.741,415.2 147.272,410.435 C 147.787,405.811 146.168,399.457 142.476,396.304 C 141.551,395.659 140.551,394.659 140.551,394.659 C 140.551,394.659 140.551,394.659 140.551,395.267 L 140.551,395.875 L 138.551,396.367 C 136.744,396.811 136.551,396.356 136.551,391.659 Z M 130.752,401.349 C 126.435,399.476 121.173,399.817 116.551,399.659 C 115.783,405.877 115.551,411.877 115.551,418.148 L 119.603,418.403 L 123.655,418.659 L 125.655,418.659 C 129.336,418.659 133.148,416.165 134.556,412.644 C 136.161,408.633 134.999,403.192 130.752,401.349 Z "/>
		<path id="dp_path041" fill="#525b60" fill-rule="evenodd" stroke="none" stroke-width="0" d="M 18.5507,394.159 L 18.5507,388.659 C 5.55067,388.659 -7.44933,388.659 -20.4493,388.659 C -20.7827,391.36 -21.116,394.061 -21.4493,396.763 C -21.4493,415.395 -21.4493,434.027 -21.4493,452.659 C -8.116,452.659 5.21733,452.659 18.5507,452.659 C 18.5507,448.992 18.5507,445.325 18.5507,441.659 C 9.21733,441.659 -0.116,441.659 -9.44933,441.659 C -9.44933,436.325 -9.44933,430.992 -9.44933,425.659 C -1.62,425.659 6.21067,425.659 14.04,425.659 L 14.4093,420.963 C 14.612,418.38 14.3187,415.904 13.756,415.463 C 13.1933,415.02 7.74133,414.659 1.64133,414.659 L -9.44933,414.659 C -9.44933,409.659 -9.44933,404.659 -9.44933,399.659 C -0.116,399.659 9.21733,399.659 18.5507,399.659 Z M 11.6293,420.159 C 10.42,419.161 9.6,418.659 9.18133,418.659 C 8.21467,418.659 7.47733,419.265 6.644,419.737 C 5.596,420.329 3.99733,420.555 3.092,420.237 C -0.238667,419.067 -4.89067,420.305 -8.34533,420.659 C -5.05867,421.676 -2.13867,421.659 1.35333,421.659 C 4.912,421.659 8.41333,422.121 9.13333,422.688 C 10.2133,423.536 10.5667,423.267 10.8693,422.159 C 11.728,421.992 12.5867,421.825 13.4467,421.659 Z M 15.832,397.159 C 11.2013,395.725 5.38267,396.659 0.550667,396.659 C 1.328,396.992 2.10667,397.325 2.884,397.659 C 7.73867,397.659 12.592,397.659 17.4467,397.659 Z M 7.832,416.159 C 4.32267,415.072 0.209333,415.659 -3.44933,415.659 C 0.561333,417.377 5.12133,416.659 9.44667,416.659 Z "/>
		<path id="dp_path042" fill="#525b60" fill-rule="evenodd" stroke="none" stroke-width="0" d="M 300.551,388.659 L 270.061,388.659 C 269.833,391.557 269.605,394.457 269.377,397.356 C 270.236,400.507 275.144,399.659 277.777,399.659 L 285.551,399.659 C 285.551,417.155 285.551,434.652 285.551,452.148 C 288.449,452.376 291.349,452.604 294.248,452.832 L 295.7,452.436 C 296.76,452.147 297.205,450.219 297.352,445.297 C 297.8,430.095 297.551,414.867 297.551,399.659 C 299.217,399.659 300.884,399.659 302.551,399.659 C 302.551,399.659 303.551,399.659 303.779,399.051 C 304.415,398.736 307.077,396.588 307.385,397.717 C 307.527,398.235 309.851,398.659 312.551,398.659 L 312.551,388.659 Z M 288.551,424.992 L 288.551,404.659 C 288.217,404.659 287.884,404.659 287.551,404.659 C 287.551,419.291 287.551,433.923 287.551,448.555 C 287.884,447.477 288.217,446.401 288.551,445.325 Z "/>
		<path id="dp_path043" fill="#525b60" fill-rule="evenodd" stroke="none" stroke-width="0" d="M 448.551,370.659 L 447.551,368.659 L 446.551,371.659 C 446.551,371.659 446.551,372.659 446.551,372.932 C 446.551,373.632 446.1,374.327 445.551,374.477 C 445.001,374.627 444.551,377.409 444.551,380.659 C 446.551,379.659 446.551,379.659 448.551,378.659 L 449.608,375.159 C 449.2,375.159 449.083,373.296 449.004,372.909 C 448.551,372.659 448.551,371.659 448.551,370.659 Z "/>
		<path id="dp_path044" fill="#525b60" fill-rule="evenodd" stroke="none" stroke-width="0" d="M 361.551,371.659 L 361.551,372.659 L 382.551,372.659 L 381.551,371.659 Z "/>
		<path id="dp_path045" fill="#525b60" fill-rule="evenodd" stroke="none" stroke-width="0" d="M 453.551,368.659 L 452.551,372.659 L 454.551,373.659 C 456.551,371.659 456.551,371.659 457.551,370.659 C 455.551,368.659 455.551,368.659 453.551,368.659 Z "/>
		<path id="dp_path046" fill="#ea3d6f" fill-rule="evenodd" stroke="none" stroke-width="0" d="M 322.551,436.659 C 324.152,440.472 325.767,444.275 327.447,448.055 C 328.547,450.529 329.695,452.827 329.999,453.159 C 330.303,453.491 331.427,455.967 332.499,458.659 C 333.717,461.721 335.009,464.667 336.499,467.607 C 336.551,468.659 337.551,470.659 338.551,471.659 L 340.551,469.659 C 342.217,467.992 343.884,466.325 345.551,464.659 C 346.479,463.731 347.504,462.943 348.551,462.159 L 348.551,461.409 C 348.551,461.659 348.551,460.659 348.551,460.659 C 348.551,460.659 347.551,460.659 347.801,460.659 C 347.133,460.659 346.968,460.548 346.301,459.659 C 345.8,458.992 345.217,458.325 344.551,457.659 C 343.128,456.236 340.743,454.688 340.551,452.659 L 333.551,452.659 L 332.551,444.659 C 332.551,444.659 332.551,444.659 331.999,444.607 C 331.516,444.561 331.263,444.371 329.999,443.107 C 329.183,442.291 328.367,441.475 327.551,440.659 C 326.128,439.236 324.58,436.851 322.551,436.659 Z "/>
		<path id="dp_path047" fill="#ea3d6f" fill-rule="evenodd" stroke="none" stroke-width="0" d="M 490.551,456.659 C 491.925,455.971 492.508,456.084 492.683,457.072 C 492.815,457.819 493.537,458.505 494.288,458.596 C 495.745,458.775 498.551,460.289 498.551,461.909 C 498.551,461.659 498.551,462.659 498.551,462.659 C 498.551,462.659 498.551,463.659 498.551,463.453 L 498.551,464.247 C 497.347,464.46 496.143,464.672 494.937,464.884 C 494.68,465.4 494.421,465.917 494.164,466.433 C 492.665,466.615 491.281,466.876 489.999,467.756 C 488.84,468.551 488.551,468.175 488.551,465.871 C 488.551,463.888 488.708,462.1 489.051,460.159 C 489.199,460.159 489.345,460.159 489.493,460.159 Z "/>
		<path id="dp_path048" fill="#ea3d6f" fill-rule="evenodd" stroke="none" stroke-width="0" d="M 531.051,469.659 L 531.551,468.659 C 527.551,468.659 523.551,468.659 519.551,468.659 L 520.717,469.159 C 523.261,470.249 526.671,469.659 529.447,469.659 C 530.009,470.169 530.572,470.615 531.051,469.659 Z "/>
		<path id="dp_path049" fill="#a05f89" fill-rule="evenodd" stroke="none" stroke-width="0" d="M 418.551,330.659 C 415.193,331.267 410.693,332.841 408.551,334.159 C 406.408,335.476 403.033,336.827 401.051,337.159 C 399.068,337.491 396.143,338.616 394.551,339.659 C 390.308,342.436 384.777,343.768 380.051,345.659 C 375.884,347.325 371.717,348.992 367.551,350.659 C 363.119,352.432 358.852,354.428 354.603,356.607 C 354.551,356.659 353.551,357.659 352.551,357.659 C 352.028,359.225 351.504,360.789 350.959,362.348 C 350.575,363.441 350.045,364.341 349.459,364.9 C 348.885,365.445 348.205,366.837 347.611,368.681 C 347.095,370.285 346.419,371.837 346.111,372.128 C 345.551,372.659 345.551,372.659 345.551,372.659 L 361.551,372.659 L 361.551,371.659 L 361.551,370.659 L 381.551,370.659 L 400.551,370.659 L 400.551,372.659 C 400.551,372.659 401.551,372.659 401.324,372.659 L 402.096,372.659 L 402.369,371.659 C 402.519,371.108 404.4,370.659 406.551,370.659 C 406.551,370.659 406.551,369.659 406.551,369.909 C 406.551,367.648 410.315,366.657 412.164,366.433 C 412.421,365.917 412.68,365.4 412.937,364.884 C 413.844,364.775 414.749,364.664 415.655,364.555 C 416.496,363.743 417.948,361.659 419.155,361.659 C 419.431,361.659 420.508,361.007 421.551,360.211 C 423.197,358.953 424.161,358.676 426.164,358.433 C 426.421,357.917 426.68,357.4 426.937,356.884 C 430.06,355.825 432.428,354.844 435.051,352.711 C 436.919,351.192 437.864,350.712 440.164,350.433 C 440.421,349.917 440.68,349.4 440.937,348.884 C 442.744,348.272 444.551,347.659 446.357,347.045 C 447.944,346.508 448.513,345.985 449.551,344.659 C 448.768,342.579 447.524,340.805 446.787,340.716 C 445.233,340.528 444.664,339.772 443.551,338.659 C 441.779,336.887 439.865,335.868 437.655,334.763 L 437.603,334.711 C 437.551,334.659 437.551,334.659 437.551,334.659 C 436.409,333.136 434.884,332.659 431.164,332.659 C 428.477,332.659 425.848,332.321 425.324,331.909 C 423.312,330.328 420.951,330.659 418.551,330.659 Z "/>
		<path id="dp_path050" fill="#a05f89" fill-rule="evenodd" stroke="none" stroke-width="0" d="M 540.551,440.659 C 540.551,440.659 539.551,440.659 538.801,440.659 C 537.377,440.659 536.737,441.284 536.164,442.433 C 532.879,442.832 527.729,445.3 526.164,448.433 C 524.039,448.691 522.367,449.469 520.551,450.659 L 517.551,453.659 L 514.551,452.659 C 514.551,452.659 514.551,453.659 514.551,453.659 C 514.551,454.209 513.449,454.659 512.103,454.659 L 509.655,454.659 C 510.919,454.992 512.183,455.325 513.447,455.659 C 511.944,456.067 510.44,456.476 508.937,456.884 C 508.68,457.4 508.421,457.917 508.164,458.433 C 506.039,458.691 504.367,459.469 502.551,460.659 C 503.148,461.319 503.551,462.167 503.551,462.763 C 503.551,464.715 505.6,466.717 506.801,468.159 C 508.712,469.277 510.571,470.484 512.447,471.659 C 511.544,472.163 511.551,472.309 511.551,473.409 C 511.551,473.659 511.551,474.659 511.551,474.659 C 519.967,474.659 528.211,473.233 536.547,472.107 L 538.548,456.383 C 538.551,452.659 539.551,444.659 540.551,440.659 Z M 531.051,469.659 L 531.551,468.659 C 527.551,468.659 523.551,468.659 519.551,468.659 L 520.717,469.159 C 523.261,470.249 526.671,469.659 529.447,469.659 C 530.009,470.169 530.572,470.615 531.051,469.659 Z "/>
		<path id="dp_path051" fill="#a05f89" fill-rule="evenodd" stroke="none" stroke-width="0" d="M 470.551,358.659 C 470.409,357.164 469.089,355.968 468.164,354.884 C 465.32,354.539 463.071,353.119 460.655,351.659 C 461.252,351.325 461.849,350.992 462.447,350.659 C 461.447,350.624 460.447,350.589 459.447,350.555 C 457.925,349.477 456.405,348.401 454.884,347.325 C 453.988,345.535 453.093,343.744 452.197,341.953 L 451.875,343.305 C 451.551,343.659 451.551,344.659 451.551,344.659 C 451.551,344.659 451.551,344.659 452.133,344.949 L 452.715,345.241 C 452.625,346.748 452.536,348.256 452.447,349.763 C 451.713,352.665 450.98,355.567 450.248,358.468 C 449.032,359.424 448.551,360.429 448.551,362.064 C 448.551,363.059 448.571,364.052 448.499,365.044 C 448.469,365.44 447.593,367.067 446.551,368.659 C 446.551,368.659 446.551,368.659 446.551,369.159 C 446.551,369.992 446.551,370.825 446.551,371.659 L 447.551,368.659 L 448.551,370.659 C 452.551,369.659 452.551,369.659 453.551,368.659 C 455.551,368.659 455.551,368.659 457.551,370.659 C 459.551,368.659 459.551,368.659 462.551,367.659 L 462.551,366.659 C 462.767,365.683 463.553,364.809 464.3,364.719 C 466.784,364.417 468.543,361.664 470.551,360.159 L 470.551,359.409 C 470.551,359.659 470.551,358.659 470.551,358.659 Z "/>
		<path id="dp_path052" fill="#a05f89" fill-rule="evenodd" stroke="none" stroke-width="0" d="M 500.551,422.659 C 498.409,422.861 496.603,425.607 495.103,427.107 C 493.839,428.371 493.585,428.561 493.103,428.607 C 492.551,428.659 492.551,428.659 492.551,428.659 C 491.008,432.401 489.335,436.027 487.551,439.659 C 486.329,442.165 485.331,444.523 484.551,447.211 C 484.551,447.659 483.551,449.659 483.551,450.659 C 484.848,451.552 486.695,452.555 487.656,452.888 C 488.617,453.22 489.661,454.205 489.977,455.076 C 490.551,455.659 490.551,456.659 490.551,456.659 C 490.551,456.659 490.551,455.659 490.847,455.409 C 491.009,454.716 490.891,454.159 491.625,454.159 C 493.824,449.175 494.892,444.092 495.551,438.659 C 493.584,439.641 493.501,439.499 494.112,436.18 C 494.469,434.244 495.164,432.659 495.656,432.659 C 495.551,432.659 496.551,432.659 496.551,432.659 C 496.551,432.659 496.551,431.659 496.551,431.211 L 496.551,429.763 C 497.217,431.027 497.884,432.291 498.551,433.555 L 498.551,430.333 C 498.551,428.563 499.001,426.991 499.551,426.84 C 500.1,426.691 500.551,424.809 500.551,422.659 Z "/>
		<path id="dp_path053" fill="#a34893" fill-rule="evenodd" stroke="none" stroke-width="0" d="M 474.551,444.659 C 472.535,444.849 471.057,447.152 469.655,448.555 L 468.328,448.713 C 466.959,448.879 466.768,449.232 466.015,450.396 C 465.051,451.887 463.992,452.648 462.551,453.659 C 460.82,454.957 460.551,456.648 460.551,458.837 C 460.551,460.86 460.931,462.813 461.393,463.179 C 462.024,463.673 462.321,464.151 462.573,465.075 C 462.759,465.755 464.381,466.613 466.179,466.984 C 468.917,467.549 471.633,467.908 474.413,468.225 C 477.145,468.536 480.432,469.211 481.716,469.725 C 484.799,470.959 488.396,470.659 491.655,470.659 C 494.936,471.752 498.147,472.659 501.655,472.659 C 503.855,472.659 506.307,473.109 507.103,473.659 C 507.551,473.659 508.551,474.659 508.551,474.659 L 511.551,475.659 L 511.551,474.659 C 511.551,474.659 511.551,473.659 511.551,473.409 C 511.551,472.309 511.544,472.163 512.447,471.659 C 510.571,470.484 508.712,469.277 506.801,468.159 C 505.6,466.717 503.551,464.715 503.551,462.763 C 503.551,462.167 503.148,461.319 502.551,460.659 C 500.551,461.659 500.551,461.659 498.551,462.659 C 498.551,462.659 498.551,463.659 498.551,463.453 L 498.551,464.247 C 497.347,464.46 496.143,464.672 494.937,464.884 C 494.68,465.4 494.421,465.917 494.164,466.433 C 492.665,466.615 491.281,466.876 489.999,467.756 C 488.84,468.551 488.551,468.175 488.551,465.871 C 488.551,463.888 488.708,462.1 489.051,460.159 C 489.199,460.159 489.345,460.159 489.493,460.159 L 490.551,456.659 C 490.551,456.659 490.551,455.659 489.977,455.076 C 489.661,454.205 488.617,453.22 487.656,452.888 C 486.695,452.555 484.848,451.552 483.551,450.659 C 482.041,452.955 480.905,453.7 479.459,453.344 C 478.223,453.04 476.9,451.283 476.003,448.755 C 475.551,447.659 474.551,445.659 474.551,444.659 Z "/>
		<path id="dp_path054" fill="#a34893" fill-rule="evenodd" stroke="none" stroke-width="0" d="M 437.551,334.659 C 437.551,334.659 437.551,334.659 437.603,334.711 L 437.655,334.763 C 439.865,335.868 441.779,336.887 443.551,338.659 C 444.664,339.772 445.233,340.528 446.787,340.716 C 447.524,340.805 448.768,342.579 449.551,344.659 C 450.551,344.659 450.551,344.659 451.551,344.659 C 451.551,344.659 451.551,343.659 451.875,343.305 L 452.197,341.953 C 453.093,343.744 453.988,345.535 454.884,347.325 C 456.405,348.401 457.925,349.477 459.447,350.555 C 460.447,350.589 461.447,350.624 462.447,350.659 C 461.849,350.992 461.252,351.325 460.655,351.659 C 463.071,353.119 465.32,354.539 468.164,354.884 C 469.089,355.968 470.409,357.164 470.551,358.659 C 472.049,358.517 472.887,357.552 474.051,356.607 C 475.727,355.244 476.628,354.643 477.051,354.607 C 478.66,354.468 480.467,351.743 481.655,350.555 C 484.348,347.861 487.221,345.424 490.151,342.992 C 490.151,340.507 485.723,340.972 483.903,340.901 C 480.467,340.768 476.619,340.209 475.353,339.659 C 474.087,339.109 471.077,338.659 468.664,338.659 C 466.252,338.659 463.705,338.209 463.005,337.659 C 462.305,337.109 459.419,336.659 456.589,336.659 C 453.76,336.659 450.472,336.209 449.28,335.659 C 445.849,334.075 441.245,334.659 437.551,334.659 Z "/>
		<path id="dp_path055" fill="#a34893" fill-rule="evenodd" stroke="none" stroke-width="0" d="M 496.551,432.659 C 496.551,432.659 495.551,432.659 495.656,432.659 C 495.164,432.659 494.469,434.244 494.112,436.18 C 493.501,439.499 493.584,439.641 495.551,438.659 C 496.551,437.659 496.551,437.659 497.551,434.659 C 497.551,434.659 497.551,434.659 497.551,434.159 L 497.551,433.659 C 497.217,433.659 496.884,433.659 496.551,433.659 Z "/>
		<path id="dp_path056" fill="#64ac9a" fill-rule="evenodd" stroke="none" stroke-width="0" d="M 538.551,284.659 C 539.131,287.627 538.98,288.703 537.933,289.064 C 537.109,289.349 536.551,290.963 536.551,293.056 C 536.551,294.987 536.101,296.691 535.551,296.84 C 534.093,297.239 534.551,300.629 534.551,301.763 C 531.181,308.501 529.623,315.923 527.603,323.159 C 526.987,325.367 526.628,327.289 526.545,329.576 C 526.485,331.239 526.012,332.715 525.493,332.856 C 524.975,332.997 524.551,334.329 524.551,335.815 C 524.551,337.752 523.995,338.952 522.551,340.087 L 522.551,341.873 C 522.551,342.659 522.551,343.659 522.551,343.659 L 522.869,345.159 C 524.96,345.159 524.551,348.261 524.551,349.863 C 524.551,352.788 524.733,354.636 527.447,355.659 L 526.165,355.909 C 524.436,356.247 525.723,358.32 526.051,359.377 C 526.519,360.887 526.551,362.192 526.551,363.78 C 526.551,365.313 527.047,366.703 527.653,366.868 C 529.173,367.283 527.815,370.593 527.551,371.555 C 527.551,372.168 527.871,372.797 528.051,373.377 C 528.519,374.887 528.551,376.192 528.551,377.78 C 528.551,379.313 529.001,380.691 529.551,380.84 C 530.101,380.991 530.551,382.811 530.551,384.885 C 530.551,385.659 530.551,387.659 530.551,388.659 C 534.892,388.659 536.533,389.051 536.924,390.183 L 537.452,391.708 L 537.001,392.183 C 536.551,392.659 536.551,392.659 536.551,392.659 C 536.551,392.659 537.551,392.659 537.384,392.659 C 539.055,392.659 539.828,392.381 541.103,391.107 C 542.917,389.292 544.769,386.797 547.551,386.659 C 548.716,383.94 548.551,381.496 548.551,378.555 C 551.151,353.843 555.133,329.365 558.903,304.804 C 557.153,302.791 555.404,300.777 553.655,298.763 C 548.411,295.751 544.896,290.004 540.655,285.763 C 539.988,285.096 539.471,284.745 539.103,284.711 C 538.551,284.659 538.551,284.659 538.551,284.659 Z "/>
		<path id="dp_path057" fill="#64ac9a" fill-rule="evenodd" stroke="none" stroke-width="0" d="M 504.551,366.659 C 503.877,370.071 504.052,370.988 505.595,372.155 L 507.447,373.555 L 505.999,373.107 C 505.551,372.659 504.551,372.659 504.551,372.659 L 504.551,376.659 L 506.551,376.659 C 507.884,376.967 508.643,377.805 508.471,378.781 C 508.188,380.38 506.885,380.749 505.551,381.113 L 505.551,381.885 C 505.551,381.659 505.551,382.659 505.551,382.659 L 508.551,383.659 C 509.252,383.693 509.953,383.728 510.655,383.763 C 510.099,384.069 509.541,384.375 508.984,384.68 L 509.267,385.669 C 509.551,385.659 509.551,386.659 509.551,386.659 L 511.551,387.659 L 512.551,381.659 L 510.493,377.159 C 510.512,376.992 510.532,376.825 510.551,376.659 C 509.551,374.231 512.223,371.447 513.551,369.659 L 513.051,369.159 C 512.551,368.659 512.551,368.659 512.551,368.659 C 511.524,367.995 510.769,370.948 510.551,371.555 C 510.108,370.089 509.667,368.624 509.224,367.159 C 508.56,366.575 508.353,366.771 507.477,367.096 C 506.564,367.436 506.292,367.529 505.425,367.096 C 505.551,366.659 504.551,366.659 504.551,366.659 Z "/>
		<path id="dp_path058" fill="#64ac9a" fill-rule="evenodd" stroke="none" stroke-width="0" d="M 393.551,424.659 C 393.551,424.659 392.551,425.659 392.603,425.607 C 391.945,426.264 391.335,426.609 390.447,426.763 L 386.551,428.659 L 386.551,448.659 L 388.551,451.659 L 388.551,441.659 C 388.551,436.644 388.828,435.791 390.599,435.355 C 391.725,435.077 392.4,434.357 392.099,433.755 C 391.797,433.152 392.001,432.433 392.551,432.159 C 393.832,431.519 394.643,433.843 395.051,434.659 L 395.801,434.659 C 395.551,434.659 396.551,434.659 396.551,434.659 C 394.551,427.659 394.551,427.659 393.551,424.659 Z "/>
		<path id="dp_path059" fill="#64ac9a" fill-rule="evenodd" stroke="none" stroke-width="0" d="M 372.551,442.659 C 372.551,442.659 371.551,442.659 371.801,442.659 C 370.315,442.659 368.683,445.264 368.551,446.659 C 370.908,446.881 372.927,450.109 374.444,451.717 C 374.763,450.549 375.02,449.731 376.324,450.736 C 377.205,451.416 378.079,452.104 378.945,452.801 C 379.989,453.641 380.301,454.08 380.653,455.369 C 381.06,456.857 382.064,456.403 383.051,455.909 L 383.801,456.284 C 383.551,456.659 384.551,456.659 384.551,456.659 C 384.551,455.825 384.551,454.992 384.551,454.159 C 384.551,453.659 384.551,453.659 384.551,453.659 C 383.271,453.3 380.071,450.703 377.44,447.885 L 372.655,442.763 L 372.603,442.711 C 372.551,442.659 372.551,442.659 372.551,442.659 Z "/>
		<path id="dp_path060" fill="#64ac9a" fill-rule="evenodd" stroke="none" stroke-width="0" d="M 493.551,374.659 C 493.968,372.764 495.867,372.225 497.447,371.659 C 495.944,371.251 494.44,370.841 492.937,370.433 L 492.369,369.296 C 492.139,368.833 491.907,368.371 491.676,367.909 C 491.531,367.617 491.32,367.401 491.103,367.159 C 490.455,366.435 486.551,367.224 486.551,368.167 C 486.551,368.659 486.551,368.659 486.551,368.659 C 487.083,371.091 490.605,372.513 492.551,373.659 L 493.051,374.159 C 493.551,374.659 493.551,374.659 493.551,374.659 Z "/>
		<path id="dp_path061" fill="#64ac9a" fill-rule="evenodd" stroke="none" stroke-width="0" d="M 358.551,454.659 C 358.551,454.659 357.551,454.659 357.777,454.659 L 357.005,454.659 C 356.641,455.993 356.068,456.659 354.505,456.659 C 352.884,456.659 352.721,457 353.551,458.659 C 356.551,464.659 356.551,464.659 356.551,468.659 C 356.551,469.659 356.551,469.659 356.551,470.659 L 358.447,466.763 L 358.491,464.776 C 358.515,463.684 357.887,462.309 357.095,461.724 C 355.332,460.42 356.897,460.417 358.227,460.159 C 358.447,458.912 358.551,457.765 358.551,456.492 C 358.551,455.659 358.551,454.659 358.551,454.659 Z "/>
		<path id="dp_path062" fill="#64ac9a" fill-rule="evenodd" stroke="none" stroke-width="0" d="M 316.551,422.659 C 317.527,422.875 318.491,423.987 318.693,425.131 C 319.015,426.957 319.197,427.019 320.205,425.633 C 320.973,424.579 321.699,423.512 322.399,422.411 C 323.271,421.04 323.585,419.619 323.776,418.045 C 324.667,417.584 325.556,417.121 326.447,416.659 C 327.225,415.484 325.955,417.475 325.716,417.856 C 324.847,419.248 324.519,420.681 324.325,422.272 C 322.932,422.968 322.689,423.301 322.164,424.852 C 321.821,425.86 321.469,426.847 321.051,427.825 C 320.665,428.724 320.551,429.347 320.551,430.325 C 320.551,430.659 320.551,431.659 320.551,431.659 C 317.551,427.659 317.551,427.659 316.551,422.659 Z "/>
		<path id="dp_path063" fill="#64ac9a" fill-rule="evenodd" stroke="none" stroke-width="0" d="M 453.551,368.659 C 452.551,369.659 452.551,369.659 448.551,370.659 C 448.551,371.659 448.551,372.659 449.004,372.909 C 449.083,373.296 449.2,375.159 449.608,375.159 L 448.551,378.659 L 452.408,375.944 C 452.769,375.223 453.071,374.843 453.717,374.325 C 453.551,374.659 454.551,373.659 454.551,373.659 L 452.551,372.659 Z "/>
		<path id="dp_path064" fill="#64ac9a" fill-rule="evenodd" stroke="none" stroke-width="0" d="M 368.551,446.659 C 366.551,447.659 366.551,447.659 362.551,450.659 C 363.936,451.317 365.108,451.539 366.551,451.159 L 366.551,451.909 C 366.551,451.659 366.551,452.659 366.551,452.659 C 366.551,453.659 366.551,453.659 366.551,454.659 C 367.607,454.421 368.737,453.451 369.067,452.503 C 369.395,451.556 369.172,450.647 368.573,450.483 C 367.973,450.32 367.724,449.392 368.017,448.423 C 368.551,447.659 368.551,446.659 368.551,446.659 Z "/>
		<path id="dp_path065" fill="#64ac9a" fill-rule="evenodd" stroke="none" stroke-width="0" d="M 370.551,482.659 C 369.636,479.509 367.101,478.528 365.123,476.301 C 364.537,475.644 364.052,474.936 363.551,474.211 C 362.193,472.247 362.616,474.651 362.655,475.763 C 363.62,476.728 364.585,477.693 365.551,478.659 C 366.516,479.624 367.481,480.589 368.447,481.555 C 368.556,482.46 368.667,483.365 368.776,484.272 L 369.164,484.465 C 369.551,484.659 369.551,484.659 369.551,484.659 C 369.551,483.659 369.551,483.659 370.551,482.659 Z "/>
		<path id="dp_path066" fill="#64ac9a" fill-rule="evenodd" stroke="none" stroke-width="0" d="M 501.551,371.659 L 498.62,372.519 C 498.061,373.637 497.925,374.045 498.227,375.305 C 498.551,375.659 498.551,376.659 498.551,376.659 C 498.551,377.159 498.551,377.659 498.551,378.159 C 498.551,378.656 498.553,378.659 499.051,378.659 C 499.551,378.659 499.551,378.659 499.551,378.659 C 501.551,374.659 501.551,374.659 503.551,372.659 L 503.551,371.659 C 503.051,371.659 502.551,371.659 502.051,371.659 C 501.551,371.659 501.551,371.659 501.551,371.659 Z "/>
		<path id="dp_path067" fill="#64ac9a" fill-rule="evenodd" stroke="none" stroke-width="0" d="M 436.551,432.659 C 439.62,431.508 440.551,430.624 440.551,428.863 C 440.551,425.937 438.823,427.659 437.155,427.659 C 436.639,427.659 436.489,427.809 436.103,428.159 C 435.551,428.659 435.551,428.659 435.551,428.659 C 436.551,431.659 436.551,431.659 436.551,432.659 Z "/>
		<path id="dp_path068" fill="#64ac9a" fill-rule="evenodd" stroke="none" stroke-width="0" d="M 523.551,393.659 C 521.485,392.575 521.411,392.519 519.551,390.659 C 517.689,388.797 517.644,388.763 517.051,388.711 C 516.297,388.645 515.699,388.915 514.988,389.159 C 516.461,390.231 517.935,391.301 519.408,392.373 C 519.884,393.324 520.229,393.544 521.235,394.027 C 521.551,394.659 522.551,394.659 522.551,394.659 C 522.551,395.492 522.551,396.325 522.551,397.159 C 522.551,397.659 522.551,397.659 522.551,397.659 C 523.551,394.659 523.551,394.659 523.551,393.659 Z "/>
		<path id="dp_path069" fill="#64ac9a" fill-rule="evenodd" stroke="none" stroke-width="0" d="M 344.448,375.409 C 343.875,372.163 341.363,374.449 340.899,376.409 C 340.539,377.921 340.596,379.159 341.023,379.159 C 342.167,379.159 342.313,378.132 342.801,377.159 C 344.012,377.159 344.709,376.893 344.448,375.409 Z "/>
		<path id="dp_path070" fill="#64ac9a" fill-rule="evenodd" stroke="none" stroke-width="0" d="M 436.551,434.659 C 435.593,434.448 434.636,433.636 434.423,432.855 C 434.209,432.075 433.421,431.603 432.671,431.808 C 430.717,432.34 432.551,435.353 432.551,436.659 C 433.551,436.659 433.551,436.659 434.551,436.659 L 436.551,435.659 Z "/>
		<path id="dp_path071" fill="#64ac9a" fill-rule="evenodd" stroke="none" stroke-width="0" d="M 364.551,458.659 C 365.149,461.291 370.551,461.692 370.551,458.613 C 370.551,456.145 368.815,457.527 367.551,458.159 C 367.551,458.659 366.551,458.659 366.551,458.659 C 365.551,458.659 365.551,458.659 364.551,458.659 Z "/>
		<path id="dp_path072" fill="#64ac9a" fill-rule="evenodd" stroke="none" stroke-width="0" d="M 514.551,372.659 C 515.032,373.716 513.565,375.628 513.051,376.659 C 512.551,376.659 512.551,377.659 512.551,377.659 C 513.94,378.353 514.744,378.224 515.459,377.191 C 516.076,376.299 517.601,373.365 515.653,372.913 C 515.551,372.659 514.551,372.659 514.551,372.659 Z "/>
		<path id="dp_path073" fill="#64ac9a" fill-rule="evenodd" stroke="none" stroke-width="0" d="M 517.551,407.659 L 515.551,409.659 L 512.551,410.659 L 513.551,412.659 C 513.551,412.659 514.551,411.659 514.499,411.711 C 515.096,411.113 515.949,410.703 516.805,410.599 L 518.164,410.433 C 518.729,409.3 519.337,408.056 517.551,407.659 Z "/>
		<path id="dp_path074" fill="#64ac9a" fill-rule="evenodd" stroke="none" stroke-width="0" d="M 408.551,448.659 L 409.551,451.659 L 416.551,452.659 C 410.551,449.659 410.551,449.659 408.551,448.659 Z "/>
		<path id="dp_path075" fill="#64ac9a" fill-rule="evenodd" stroke="none" stroke-width="0" d="M 422.551,463.659 L 421.551,460.763 C 421.551,462.561 421.551,464.36 421.551,466.159 C 422.779,466.844 422.049,466.864 420.899,467.459 C 419.239,468.317 419.791,472.443 420.892,470.075 C 421.551,469.659 421.551,468.659 421.551,468.659 C 422.551,465.659 422.551,465.659 422.551,463.659 Z "/>
		<path id="dp_path076" fill="#0089af" fill-rule="evenodd" stroke="none" stroke-width="0" d="M 538.551,284.659 C 539.447,281.645 539.383,281.544 536.965,282.141 C 532.625,283.213 528.551,285.712 524.551,287.659 C 522.105,288.848 519.655,289.983 517.155,291.055 C 515.231,291.879 512.033,292.827 510.051,293.159 C 504.513,294.087 499.525,297.204 494.551,299.659 C 489.725,301.323 485.248,303.32 480.655,305.555 C 477.076,306.517 473.989,307.917 470.655,309.555 L 470.103,309.607 C 469.551,309.659 469.551,309.659 469.551,309.659 L 473.447,314.555 C 474.235,315.096 475.023,315.639 475.812,316.18 C 476.717,317.471 477.62,318.761 478.504,320.065 C 479.519,321.563 480.408,321.801 482.085,322.383 C 483.049,323.844 484.036,325.259 485.103,326.648 C 485.899,327.685 486.551,329.461 486.551,330.596 C 486.551,332.111 487.193,332.659 488.967,332.659 C 491.2,332.659 494.025,334.692 494.495,336.981 C 494.863,338.776 497.176,340.284 498.447,341.555 C 498.744,344 499.84,344.475 502.164,344.884 C 502.941,345.879 503.701,346.875 504.425,347.909 C 504.907,348.596 505.156,349.271 504.977,349.409 C 504.321,349.917 505.972,350.161 506.492,350.36 C 507.501,350.747 508.461,351.82 508.625,352.747 C 508.919,354.413 510.277,354.595 511.655,354.763 C 512.772,355.895 513.888,357.027 515.005,358.159 C 513.673,358.159 514.763,360.659 515.777,360.659 C 515.551,360.659 516.551,360.659 516.551,360.659 L 518.551,357.659 C 518.551,353.769 519.4,348.549 521.551,345.211 C 521.551,344.659 522.551,343.659 522.551,343.659 C 522.551,343.659 522.551,342.659 522.551,341.873 L 522.551,340.087 C 523.995,338.952 524.551,337.752 524.551,335.815 C 524.551,334.329 524.975,332.997 525.493,332.856 C 526.012,332.715 526.485,331.239 526.545,329.576 C 526.628,327.289 526.987,325.367 527.603,323.159 C 529.623,315.923 531.181,308.501 534.551,301.763 C 534.551,300.629 534.093,297.239 535.551,296.84 C 536.101,296.691 536.551,294.987 536.551,293.056 C 536.551,290.963 537.109,289.349 537.933,289.064 C 538.98,288.703 539.131,287.627 538.551,284.659 Z "/>
		<path id="dp_path077" fill="#0089af" fill-rule="evenodd" stroke="none" stroke-width="0" d="M 381.551,370.659 L 381.551,371.659 L 382.551,372.659 L 361.551,372.659 L 345.551,372.659 C 335.551,372.659 325.551,372.659 315.551,372.659 C 308.963,372.659 302.38,376.796 296.655,379.659 C 296.845,379.825 297.037,379.992 297.228,380.159 C 297.485,382.335 297.964,384.284 299.103,386.211 C 299.551,386.659 300.551,387.659 300.551,388.659 L 312.551,388.659 L 312.551,398.659 C 312.551,398.659 312.551,399.659 312.551,399.492 C 312.551,399.951 311.675,400.176 310.603,399.992 C 309.532,399.809 307.708,400.108 306.551,400.659 L 307.655,406.763 L 309.103,409.659 L 310.551,412.555 C 312.293,413.608 312.745,414.241 313.551,416.211 C 313.551,416.659 314.551,417.659 314.551,418.659 C 317.62,418.659 321.524,419.361 323.551,416.659 C 324.013,416.067 324.476,415.476 324.937,414.884 C 326.619,414.68 327.971,414.308 329.353,413.232 C 330.307,412.488 331.708,412.237 332.551,412.659 C 332.551,390.869 332.704,388.713 334.28,388.24 C 337.823,387.177 341.617,392.725 343.655,394.763 C 345.953,397.061 348.252,399.36 350.551,401.659 C 350.551,401.659 351.551,400.659 351.999,400.211 C 354.335,397.875 356.999,396.817 360.157,396.433 C 360.507,395.155 361.14,394.659 362.596,394.659 C 363.671,394.659 364.325,394.209 364.051,393.659 C 363.776,393.108 364.451,392.659 365.551,392.659 L 367.551,392.659 C 367.252,392.325 366.953,391.992 366.655,391.659 C 368.02,391.169 370.007,390.985 370.404,389.529 C 370.535,389.051 372.4,388.659 374.551,388.659 C 374.551,388.659 374.551,387.659 374.551,387.659 C 374.551,387.108 375.451,386.659 376.551,386.659 C 377.651,386.659 378.325,386.209 378.051,385.659 C 377.776,385.108 378.451,384.659 379.551,384.659 L 381.551,384.659 C 381.252,384.325 380.953,383.992 380.655,383.659 C 383.068,382.2 385.316,380.779 388.157,380.433 C 388.507,379.155 389.14,378.659 390.596,378.659 C 391.671,378.659 392.325,378.209 392.051,377.659 C 391.776,377.108 392.451,376.659 393.551,376.659 L 395.551,376.659 C 395.252,376.325 394.953,375.992 394.655,375.659 C 396.388,374.612 398.496,372.853 400.551,372.659 L 400.551,370.659 Z M 344.448,375.409 C 343.875,372.163 341.363,374.449 340.899,376.409 C 340.539,377.921 340.596,379.159 341.023,379.159 C 342.167,379.159 342.313,378.132 342.801,377.159 C 344.012,377.159 344.709,376.893 344.448,375.409 Z "/>
		<path id="dp_path078" fill="#0089af" fill-rule="evenodd" stroke="none" stroke-width="0" d="M 462.551,367.659 C 459.551,368.659 459.551,368.659 457.551,370.659 C 456.551,371.659 456.551,371.659 454.551,373.659 C 454.551,373.659 453.551,374.659 453.717,374.325 C 453.071,374.843 452.769,375.223 452.408,375.944 L 448.551,378.659 C 446.551,379.659 446.551,379.659 444.551,380.659 L 441.551,390.659 C 442.652,391.943 443.511,392.639 445.023,393.395 C 447.153,394.46 448.467,395.945 450.107,397.687 C 453.413,401.2 455.781,404.836 457.547,409.399 C 459.672,414.897 459.704,421.4 459.051,427.211 C 458.551,428.659 458.551,430.659 458.551,431.659 C 459.137,431.82 462.656,432.877 461.273,434.048 C 461.551,434.659 460.551,434.659 460.551,434.659 C 468.551,436.659 468.551,436.659 472.551,436.659 C 471.943,431.651 470.593,425.801 469.551,423.659 C 467.549,419.547 467.033,415.023 466.447,410.555 L 463.892,403.363 C 462.487,399.407 461.085,394.587 460.776,392.651 C 460.383,390.175 460.524,389.075 462.884,388.659 C 465.852,388.659 468.819,388.659 471.787,388.659 C 473.007,392.957 474.227,397.256 475.447,401.555 C 475.741,410.304 478.445,418.253 481.732,426.252 C 483.239,422.543 484.576,418.992 485.535,415.099 C 486.872,409.676 489.463,404.671 491.655,399.555 C 492.676,396.493 493.671,393.521 495.057,390.607 C 496.505,387.563 500.163,386.393 501.597,390.159 C 502.699,393.048 504.083,395.779 505.447,398.555 L 505.499,399.107 C 505.551,399.659 505.551,399.659 505.551,399.659 L 507.551,396.659 C 506.575,394.132 506.676,393.755 508.413,393.448 L 510.381,393.1 C 508.807,392.62 507.231,392.139 505.655,391.659 L 507.603,390.921 C 508.675,390.516 509.551,389.392 509.551,388.421 C 509.551,387.659 509.551,386.659 509.551,386.659 C 509.551,386.659 509.551,385.659 509.267,385.669 L 508.984,384.68 C 509.541,384.375 510.099,384.069 510.655,383.763 C 509.953,383.728 509.252,383.693 508.551,383.659 L 505.551,382.659 L 504.551,382.659 C 502.324,383.772 502.197,381.413 501.796,379.781 L 500.673,379.22 C 500.551,378.659 499.551,378.659 499.551,378.659 C 499.551,378.659 499.551,378.659 499.051,378.659 C 498.553,378.659 498.551,378.656 498.551,378.159 C 498.551,377.659 498.551,377.159 498.551,376.659 C 494.551,375.659 494.551,375.659 493.551,374.659 C 493.551,374.659 493.551,374.659 493.051,374.159 L 492.551,373.659 C 490.605,372.513 487.083,371.091 486.551,368.659 L 482.551,367.659 C 463.551,367.659 463.551,367.659 462.551,367.659 Z "/>
		<path id="dp_path079" fill="#0089af" fill-rule="evenodd" stroke="none" stroke-width="0" d="M 436.551,452.659 C 432.551,452.659 432.551,452.659 425.551,453.659 L 423.551,463.659 L 422.551,463.659 C 422.551,465.659 422.551,465.659 421.551,468.659 L 418.655,480.555 L 418.505,482.384 C 418.3,484.908 420.996,484.659 422.717,484.659 C 423.551,484.659 424.551,484.659 424.551,484.659 C 432.551,484.659 432.551,484.659 462.551,480.659 C 461.943,480.051 460.795,478.903 459.999,478.107 C 458.735,476.843 458.444,476.584 457.708,476.068 C 456.679,475.347 456.509,474.176 456.199,473.037 C 455.007,472.624 453.813,472.211 452.62,471.799 C 452.18,470.919 451.74,470.039 451.301,469.159 C 453.035,469.159 450.585,467.995 449.884,467.461 C 446.007,464.508 442.736,460.879 439.499,457.249 C 436.605,454.005 436.551,453.932 436.551,453.301 C 436.551,452.659 436.551,452.659 436.551,452.659 Z "/>
		<path id="dp_path080" fill="#0089af" fill-rule="evenodd" stroke="none" stroke-width="0" d="M 518.551,398.659 C 516.328,398.448 514.363,396.047 512.655,394.659 C 511.588,394.043 511.743,391.916 511.551,390.763 C 510.585,392.36 509.62,393.957 508.655,395.555 L 508.603,396.107 C 508.551,396.659 508.551,396.659 508.551,396.659 C 510.9,397.337 511.168,397.833 510.755,400.728 C 510.496,402.541 510.743,404.255 511.304,404.536 C 512.416,405.092 512.403,405.488 512.62,406.72 C 512.783,407.641 513.509,408.679 514.233,409.027 C 514.551,409.659 515.551,409.659 515.551,409.659 L 517.551,407.659 C 518.551,405.659 518.551,405.659 520.551,404.659 C 519.508,403.067 518.632,401.44 518.603,401.044 C 518.565,400.525 518.551,400.013 518.551,399.492 C 518.551,399.659 518.551,398.659 518.551,398.659 Z "/>
		<path id="dp_path081" fill="#0089af" fill-rule="evenodd" stroke="none" stroke-width="0" d="M 502.551,422.659 C 500.815,417.132 498.989,412.721 498.495,412.856 C 497.999,412.991 497.111,415.051 496.52,417.432 L 495.447,421.763 C 494.481,423.207 493.516,424.651 492.551,426.095 L 492.551,427.376 C 492.551,427.659 492.551,428.659 492.551,428.659 C 492.551,428.659 492.551,428.659 493.103,428.607 C 493.585,428.561 493.839,428.371 495.103,427.107 C 496.603,425.607 498.409,422.861 500.551,422.659 C 501.551,422.659 501.551,422.659 502.551,422.659 Z "/>
		<path id="dp_path082" fill="#0089af" fill-rule="evenodd" stroke="none" stroke-width="0" d="M 512.551,368.659 C 514.54,368.38 515.656,367.713 515.443,366.932 C 515.2,366.041 512.777,365.659 507.376,365.659 L 499.655,365.659 L 501.603,366.159 C 502.551,366.659 503.551,366.659 503.551,366.659 L 504.551,366.659 C 504.551,366.659 505.551,366.659 505.425,367.096 C 506.292,367.529 506.564,367.436 507.477,367.096 C 508.353,366.771 508.56,366.575 509.224,367.159 C 509.667,368.624 510.108,370.089 510.551,371.555 C 510.769,370.948 511.524,367.995 512.551,368.659 Z "/>
		<path id="dp_path083" fill="#0089af" fill-rule="evenodd" stroke="none" stroke-width="0" d="M 476.32,362.549 C 475.908,361.359 474.719,360.659 473.108,360.659 C 471.073,360.659 470.651,361.436 470.875,363.159 C 472.015,363.499 473.156,363.832 474.301,364.159 C 475.437,366.432 479.253,365.659 481.447,365.659 L 479.211,365.049 C 477.981,364.713 476.68,363.589 476.32,362.549 Z "/>
		<path id="dp_path084" fill="#0089af" fill-rule="evenodd" stroke="none" stroke-width="0" d="M 522.551,394.659 L 518.551,394.659 L 518.551,398.659 L 522.551,399.659 C 522.551,398.659 522.551,398.659 522.551,397.659 C 522.551,397.659 522.551,397.659 522.551,397.159 C 522.551,396.325 522.551,395.492 522.551,394.659 Z "/>
		<path id="dp_path085" fill="#0089af" fill-rule="evenodd" stroke="none" stroke-width="0" d="M 366.551,452.659 L 364.551,453.659 L 364.551,458.659 C 365.551,458.659 365.551,458.659 366.551,458.659 L 366.551,454.659 C 366.551,453.659 366.551,453.659 366.551,452.659 Z "/>
		<path id="dp_path086" fill="#23bcb8" fill-rule="evenodd" stroke="none" stroke-width="0" d="M 396.551,435.659 C 397.227,439.053 396.821,441.149 395.029,443.92 C 391.792,445.539 392.551,449.577 392.551,452.749 C 388.648,451.685 389.891,446.009 390.877,443.159 C 390.837,443.159 390.797,443.159 390.756,443.159 C 390.355,441.693 389.952,440.228 389.551,438.763 L 389.051,440.211 C 388.551,440.659 388.551,441.659 388.551,441.659 L 388.551,451.659 L 386.551,448.659 L 386.551,452.659 L 384.551,453.659 C 384.551,453.659 384.551,453.659 384.551,454.159 C 384.551,454.992 384.551,455.825 384.551,456.659 C 385.521,457.743 384.291,458.236 383.447,458.659 C 381.084,457.905 380.784,462.088 379.947,463.763 C 376.836,469.983 373.804,476.236 370.827,482.52 L 370.689,482.589 C 370.551,482.659 370.551,482.659 370.551,482.659 C 369.551,483.659 369.551,483.659 369.551,484.659 L 372.151,487.273 C 372.151,487.901 372.151,488.531 372.151,489.159 L 371.403,489.409 C 370.855,489.592 370.908,489.792 371.603,490.159 C 371.551,490.659 372.551,490.659 372.551,490.659 C 373.612,491.62 374.109,491.659 375.551,491.659 C 379.763,491.659 383.976,490.001 388.103,489.159 C 388.551,488.659 389.551,488.659 390.551,488.659 L 380.655,486.659 C 379.896,486.659 379.112,486.94 378.373,487.096 C 377.284,487.327 373.221,487.319 374.331,485.099 C 374.707,484.348 375.573,484.241 376.783,484.799 C 379.648,486.115 383.645,485.035 386.655,484.659 C 396.953,484.659 407.252,484.659 417.551,484.659 L 417.551,485.159 C 417.551,485.659 417.551,485.659 417.551,485.659 L 424.551,485.659 L 424.551,484.659 C 424.551,484.659 423.551,484.659 422.717,484.659 C 420.996,484.659 418.3,484.908 418.505,482.384 L 418.655,480.555 L 421.551,468.659 C 421.551,468.659 421.551,469.659 420.892,470.075 C 419.791,472.443 419.239,468.317 420.899,467.459 C 422.049,466.864 422.779,466.844 421.551,466.159 C 421.551,464.36 421.551,462.561 421.551,460.763 L 422.551,463.659 L 423.551,463.659 L 425.551,453.659 C 419.551,453.659 419.551,453.659 416.551,452.659 L 409.551,451.659 L 408.551,448.659 C 398.551,438.659 398.551,438.659 396.551,435.659 Z M 402.499,449.659 C 401.105,449.659 400.339,449.805 399.103,450.659 C 397.16,452 399.645,452.275 400.884,452.659 C 403.015,452.659 405.147,452.659 407.277,452.659 C 406.536,452.076 405.793,451.492 405.051,450.909 L 404.248,450.284 C 403.807,449.94 403.02,449.659 402.499,449.659 Z "/>
		<path id="dp_path087" fill="#23bcb8" fill-rule="evenodd" stroke="none" stroke-width="0" d="M 422.551,400.659 C 419.187,400.772 417.632,402.912 415.103,404.659 C 414.333,405.191 413.595,405.659 412.655,405.659 C 411.571,406.549 410.74,407.524 409.908,408.668 C 409.161,409.693 408.551,410.787 408.551,411.096 C 408.551,411.659 408.551,411.659 408.551,411.659 C 409.66,412.768 410.711,413.769 411.999,414.659 C 414.327,416.267 409.276,417.109 408.648,415.853 C 408.375,415.307 407.791,415.039 407.351,415.259 C 407.551,415.659 406.551,415.659 406.551,415.659 C 405.589,420.813 406.049,426.916 409.499,431.159 C 410.668,432.597 411.488,433.791 411.805,435.588 L 414.125,437.124 C 416.305,438.565 418.664,439.623 421.051,440.659 L 421.801,440.659 C 421.551,440.659 422.551,440.659 422.551,440.659 L 421.551,437.763 C 421.351,437.395 421.151,437.027 420.951,436.659 C 423.484,436.659 426.017,436.659 428.551,436.659 C 429.948,436.341 430.551,435.385 430.551,433.491 C 430.551,431.997 431.084,430.683 431.735,430.568 C 432.447,430.441 432.815,428.936 432.659,426.797 C 432.515,424.837 432.883,422.993 433.475,422.697 C 434.067,422.401 434.551,420.471 434.551,418.409 C 434.551,417.659 434.551,415.659 434.551,414.659 C 434.421,413.288 432.097,408.989 431.328,411.811 L 430.869,413.492 C 430.129,410.103 426.48,407.773 424.301,405.159 C 422.631,404.181 420.537,404.052 418.655,403.659 L 420.603,402.921 L 422.551,402.185 L 422.551,401.421 C 422.551,401.659 422.551,400.659 422.551,400.659 Z "/>
		<path id="dp_path088" fill="#23bcb8" fill-rule="evenodd" stroke="none" stroke-width="0" d="M 522.551,343.659 C 522.551,343.659 521.551,344.659 521.551,345.211 C 519.4,348.549 518.551,353.769 518.551,357.659 C 518.551,360.385 519.04,362.701 519.653,362.868 C 521.285,363.313 520.635,367.205 518.315,366.327 C 517.551,366.659 516.551,365.659 516.551,365.659 C 516.551,368.359 516.1,370.691 515.551,370.84 L 514.551,371.113 L 514.551,371.885 C 514.551,371.659 514.551,372.659 514.551,372.659 C 514.551,372.659 515.551,372.659 515.653,372.913 C 517.601,373.365 516.076,376.299 515.459,377.191 C 514.744,378.224 513.94,378.353 512.551,377.659 L 512.551,381.659 L 511.551,387.659 L 509.551,386.659 C 509.551,386.659 509.551,387.659 509.551,388.421 C 509.551,389.392 508.675,390.516 507.603,390.921 L 505.655,391.659 C 507.231,392.139 508.807,392.62 510.381,393.1 L 508.413,393.448 C 506.676,393.755 506.575,394.132 507.551,396.659 L 508.551,396.659 C 508.551,396.659 508.551,396.659 508.603,396.107 L 508.655,395.555 C 509.62,393.957 510.585,392.36 511.551,390.763 C 511.743,391.916 511.588,394.043 512.655,394.659 C 514.363,396.047 516.328,398.448 518.551,398.659 L 518.551,394.659 L 522.551,394.659 C 522.551,394.659 521.551,394.659 521.235,394.027 C 520.229,393.544 519.884,393.324 519.408,392.373 C 517.935,391.301 516.461,390.231 514.988,389.159 C 515.699,388.915 516.297,388.645 517.051,388.711 C 517.644,388.763 517.689,388.797 519.551,390.659 C 521.411,392.519 521.485,392.575 523.551,393.659 C 524.321,391.341 525.105,389.651 525.587,389.273 C 526.793,388.325 529.101,388.659 530.551,388.659 C 530.551,387.659 530.551,385.659 530.551,384.885 C 530.551,382.811 530.101,380.991 529.551,380.84 C 529.001,380.691 528.551,379.313 528.551,377.78 C 528.551,376.192 528.519,374.887 528.051,373.377 C 527.871,372.797 527.551,372.168 527.551,371.555 C 527.815,370.593 529.173,367.283 527.653,366.868 C 527.047,366.703 526.551,365.313 526.551,363.78 C 526.551,362.192 526.519,360.887 526.051,359.377 C 525.723,358.32 524.436,356.247 526.165,355.909 L 527.447,355.659 C 524.733,354.636 524.551,352.788 524.551,349.863 C 524.551,348.261 524.96,345.159 522.869,345.159 Z "/>
		<path id="dp_path089" fill="#23bcb8" fill-rule="evenodd" stroke="none" stroke-width="0" d="M 444.551,429.659 L 441.051,427.409 L 442.468,426.7 C 444.521,425.673 441.997,423.803 441.641,422.417 C 441.533,422 440.173,422.069 438.616,422.571 C 435.661,423.523 435.175,426.013 434.535,428.659 L 435.043,428.659 C 435.551,428.659 435.551,428.659 435.551,428.659 C 435.551,428.659 435.551,428.659 436.103,428.159 C 436.489,427.809 436.639,427.659 437.155,427.659 C 438.823,427.659 440.551,425.937 440.551,428.863 C 440.551,430.624 439.62,431.508 436.551,432.659 C 436.551,433.659 436.551,433.659 436.551,434.659 L 437.655,433.659 C 439.181,434.076 440.328,433.923 441.701,432.959 C 442.551,432.659 443.551,431.659 443.551,431.659 L 444.551,431.659 C 444.551,431.159 444.551,430.659 444.551,430.159 C 444.551,429.659 444.551,429.659 444.551,429.659 Z "/>
		<path id="dp_path090" fill="#23bcb8" fill-rule="evenodd" stroke="none" stroke-width="0" d="M 442.551,408.659 C 439.832,409.597 439.767,409.743 441.488,411.033 C 443.171,412.295 444.551,414.595 444.551,416.659 C 444.551,418.859 445.001,420.884 445.551,421.159 C 446.829,421.799 446.551,418.167 446.551,417.659 C 446.551,414.369 444.996,411.5 443.551,408.659 L 443.051,408.659 C 442.551,408.659 442.551,408.659 442.551,408.659 Z "/>
		<path id="dp_path091" fill="#23bcb8" fill-rule="evenodd" stroke="none" stroke-width="0" d="M 503.551,366.659 L 500.551,368.659 L 501.551,371.659 C 501.551,371.659 501.551,371.659 502.051,371.659 C 502.551,371.659 503.051,371.659 503.551,371.659 L 503.551,372.659 L 504.551,372.659 C 504.551,372.659 505.551,372.659 505.999,373.107 L 507.447,373.555 L 505.595,372.155 C 504.052,370.988 503.877,370.071 504.551,366.659 Z "/>
		<path id="dp_path092" fill="#23bcb8" fill-rule="evenodd" stroke="none" stroke-width="0" d="M 518.551,398.659 C 518.551,398.659 518.551,399.659 518.551,399.492 C 518.551,400.013 518.565,400.525 518.603,401.044 C 518.632,401.44 519.508,403.067 520.551,404.659 L 520.551,405.659 L 522.551,399.659 Z "/>
		<path id="dp_path093" fill="#23bcb8" fill-rule="evenodd" stroke="none" stroke-width="0" d="M 506.551,376.659 C 506.315,377.832 506.029,378.14 505.083,378.883 C 504.417,379.407 504.024,380.471 504.211,381.247 C 504.551,381.659 504.551,382.659 504.551,382.659 L 505.551,382.659 C 505.551,382.659 505.551,381.659 505.551,381.885 L 505.551,381.113 C 506.885,380.749 508.188,380.38 508.471,378.781 C 508.643,377.805 507.884,376.967 506.551,376.659 Z "/>
		<path id="dp_path094" fill="#23bcb8" fill-rule="evenodd" stroke="none" stroke-width="0" d="M 407.551,486.659 C 397.551,486.659 397.551,486.659 394.551,488.659 C 399.551,488.659 399.551,488.659 407.551,486.659 Z "/>
		<path id="dp_path095" fill="#7590c1" fill-rule="evenodd" stroke="none" stroke-width="0" d="M 469.551,309.659 C 465.333,310.793 461.445,312.737 457.551,314.659 C 452.725,316.323 448.248,318.32 443.655,320.555 C 438.795,321.863 434.223,323.789 429.551,325.659 C 426.885,326.376 424.419,327.344 421.999,328.711 C 421.551,329.659 419.551,330.659 418.551,330.659 C 420.951,330.659 423.312,330.328 425.324,331.909 C 425.848,332.321 428.477,332.659 431.164,332.659 C 434.884,332.659 436.409,333.136 437.551,334.659 C 441.245,334.659 445.849,334.075 449.28,335.659 C 450.472,336.209 453.76,336.659 456.589,336.659 C 459.419,336.659 462.305,337.109 463.005,337.659 C 463.705,338.209 466.252,338.659 468.664,338.659 C 471.077,338.659 474.087,339.109 475.353,339.659 C 476.619,340.209 480.467,340.768 483.903,340.901 C 485.723,340.972 490.151,340.507 490.151,342.992 C 487.221,345.424 484.348,347.861 481.655,350.555 C 480.467,351.743 478.66,354.468 477.051,354.607 C 476.628,354.643 475.727,355.244 474.051,356.607 C 472.887,357.552 472.049,358.517 470.551,358.659 C 470.551,358.659 470.551,359.659 470.551,359.409 L 470.551,360.159 C 468.543,361.664 466.784,364.417 464.3,364.719 C 463.553,364.809 462.767,365.683 462.551,366.659 L 482.551,366.659 L 482.551,367.659 L 486.551,368.659 C 486.551,368.659 486.551,368.659 486.551,368.167 C 486.551,367.224 490.455,366.435 491.103,367.159 C 491.32,367.401 491.531,367.617 491.676,367.909 C 491.907,368.371 492.139,368.833 492.369,369.296 L 492.937,370.433 C 494.44,370.841 495.944,371.251 497.447,371.659 C 495.867,372.225 493.968,372.764 493.551,374.659 C 494.551,375.659 494.551,375.659 498.551,376.659 C 498.551,376.659 498.551,375.659 498.227,375.305 C 497.925,374.045 498.061,373.637 498.62,372.519 L 501.551,371.659 L 500.551,368.659 L 503.551,366.659 C 503.551,366.659 502.551,366.659 501.603,366.159 L 499.655,365.659 L 507.376,365.659 C 512.777,365.659 515.2,366.041 515.443,366.932 C 515.656,367.713 514.54,368.38 512.551,368.659 C 512.551,368.659 512.551,368.659 513.051,369.159 L 513.551,369.659 C 512.223,371.447 509.551,374.231 510.551,376.659 C 510.532,376.825 510.512,376.992 510.493,377.159 L 512.551,381.659 L 512.551,377.659 C 512.551,377.659 512.551,376.659 513.051,376.659 C 513.565,375.628 515.032,373.716 514.551,372.659 C 514.551,372.659 514.551,371.659 514.551,371.885 L 514.551,371.113 L 515.551,370.84 C 516.1,370.691 516.551,368.359 516.551,365.659 L 516.551,360.659 C 516.551,360.659 515.551,360.659 515.777,360.659 C 514.763,360.659 513.673,358.159 515.005,358.159 C 513.888,357.027 512.772,355.895 511.655,354.763 C 510.277,354.595 508.919,354.413 508.625,352.747 C 508.461,351.82 507.501,350.747 506.492,350.36 C 505.972,350.161 504.321,349.917 504.977,349.409 C 505.156,349.271 504.907,348.596 504.425,347.909 C 503.701,346.875 502.941,345.879 502.164,344.884 C 499.84,344.475 498.744,344 498.447,341.555 C 497.176,340.284 494.863,338.776 494.495,336.981 C 494.025,334.692 491.2,332.659 488.967,332.659 C 487.193,332.659 486.551,332.111 486.551,330.596 C 486.551,329.461 485.899,327.685 485.103,326.648 C 484.036,325.259 483.049,323.844 482.085,322.383 C 480.408,321.801 479.519,321.563 478.504,320.065 C 477.62,318.761 476.717,317.471 475.812,316.18 C 475.023,315.639 474.235,315.096 473.447,314.555 Z M 476.32,362.549 C 475.908,361.359 474.719,360.659 473.108,360.659 C 471.073,360.659 470.651,361.436 470.875,363.159 C 472.015,363.499 473.156,363.832 474.301,364.159 C 475.437,366.432 479.253,365.659 481.447,365.659 L 479.211,365.049 C 477.981,364.713 476.68,363.589 476.32,362.549 Z M 498.369,351.659 C 498.219,351.109 496.848,350.659 495.324,350.659 C 493.799,350.659 492.623,350.996 492.709,351.409 C 493.033,352.936 495.296,352.659 496.596,352.659 C 497.721,352.659 498.519,352.209 498.369,351.659 Z "/>
		<path id="dp_path096" fill="#7590c1" fill-rule="evenodd" stroke="none" stroke-width="0" d="M 460.551,434.659 L 457.655,435.659 C 457.453,435.659 457.252,435.659 457.051,435.659 C 456.551,435.659 456.551,435.659 456.551,435.659 C 451.843,443.328 444.636,448.761 436.655,452.555 L 436.603,452.607 C 436.551,452.659 436.551,452.659 436.551,452.659 C 436.551,452.659 436.551,452.659 436.551,453.301 C 436.551,453.932 436.605,454.005 439.499,457.249 C 442.736,460.879 446.007,464.508 449.884,467.461 C 450.585,467.995 453.035,469.159 451.301,469.159 C 451.74,470.039 452.18,470.919 452.62,471.799 C 453.813,472.211 455.007,472.624 456.199,473.037 C 456.509,474.176 456.679,475.347 457.708,476.068 C 458.444,476.584 458.735,476.843 459.999,478.107 C 460.795,478.903 461.943,480.051 462.551,480.659 C 466.459,480.659 478.407,479.512 489.103,478.109 L 508.551,475.56 L 508.551,475.109 C 508.551,474.659 508.551,474.659 508.551,474.659 C 508.551,474.659 507.551,473.659 507.103,473.659 C 506.307,473.109 503.855,472.659 501.655,472.659 C 498.147,472.659 494.936,471.752 491.655,470.659 C 488.396,470.659 484.799,470.959 481.716,469.725 C 480.432,469.211 477.145,468.536 474.413,468.225 C 471.633,467.908 468.917,467.549 466.179,466.984 C 464.381,466.613 462.759,465.755 462.573,465.075 C 462.321,464.151 462.024,463.673 461.393,463.179 C 460.931,462.813 460.551,460.86 460.551,458.837 C 460.551,456.648 460.82,454.957 462.551,453.659 C 463.992,452.648 465.051,451.887 466.015,450.396 C 466.768,449.232 466.959,448.879 468.328,448.713 L 469.655,448.555 C 471.057,447.152 472.535,444.849 474.551,444.659 C 474.551,440.659 474.551,440.659 472.551,436.659 C 468.551,436.659 468.551,436.659 460.551,434.659 Z "/>
		<path id="dp_path097" fill="#7590c1" fill-rule="evenodd" stroke="none" stroke-width="0" d="M 348.551,460.659 C 348.551,460.659 348.551,461.659 348.551,461.409 L 348.551,462.159 C 347.504,462.943 346.479,463.731 345.551,464.659 C 343.884,466.325 342.217,467.992 340.551,469.659 L 338.551,471.659 C 340.471,479.54 345.011,486.967 348.392,494.343 L 354.472,493.5 C 355.551,493.659 358.551,492.659 360.551,492.659 C 360.551,489.851 360.1,486.58 359.551,485.388 C 357.847,481.699 358.551,476.641 358.551,472.659 L 357.551,473.159 C 357.001,473.433 356.551,472.984 356.551,472.159 C 356.551,471.659 356.551,470.659 356.551,470.659 C 356.551,469.659 356.551,469.659 356.551,468.659 C 354.128,468.429 351.081,464.715 350.248,462.508 C 350.551,461.659 349.551,460.659 349.551,460.659 Z "/>
		<path id="dp_path098" fill="#7590c1" fill-rule="evenodd" stroke="none" stroke-width="0" d="M 352.551,357.659 C 347.641,358.855 343.095,360.448 338.551,362.659 C 335.613,364.088 332.608,365.029 329.447,365.763 C 324.915,367.576 320.812,369.883 316.499,372.159 C 316.551,372.659 315.551,372.659 315.551,372.659 C 325.551,372.659 335.551,372.659 345.551,372.659 C 345.551,372.659 345.551,372.659 346.111,372.128 C 346.419,371.837 347.095,370.285 347.611,368.681 C 348.205,366.837 348.885,365.445 349.459,364.9 C 350.045,364.341 350.575,363.441 350.959,362.348 C 351.504,360.789 352.028,359.225 352.551,357.659 Z "/>
		<path id="dp_path099" fill="#7590c1" fill-rule="evenodd" stroke="none" stroke-width="0" d="M 434.551,414.659 C 434.551,415.659 434.551,417.659 434.551,418.409 C 434.551,420.471 434.067,422.401 433.475,422.697 C 432.883,422.993 432.515,424.837 432.659,426.797 C 432.815,428.936 432.447,430.441 431.735,430.568 C 431.084,430.683 430.551,431.997 430.551,433.491 C 430.551,435.385 429.948,436.341 428.551,436.659 L 430.551,438.659 L 432.551,436.659 C 432.551,435.353 430.717,432.34 432.671,431.808 C 433.421,431.603 434.209,432.075 434.423,432.855 C 434.636,433.636 435.593,434.448 436.551,434.659 C 436.551,433.659 436.551,433.659 436.551,432.659 C 436.551,431.659 436.551,431.659 435.551,428.659 C 435.551,428.659 435.551,428.659 435.043,428.659 L 434.535,428.659 C 435.175,426.013 435.661,423.523 438.616,422.571 C 440.173,422.069 441.533,422 441.641,422.417 C 441.997,423.803 444.521,425.673 442.468,426.7 L 441.051,427.409 L 444.551,429.659 C 445.692,427.669 446.903,424.301 447.241,422.176 C 447.579,420.051 447.563,418.164 447.203,417.985 C 446.551,417.659 446.551,417.659 446.551,417.659 C 446.551,418.167 446.829,421.799 445.551,421.159 C 445.001,420.884 444.551,418.859 444.551,416.659 C 442.757,419.185 441.116,418.396 440.448,415.948 C 440.219,415.107 439.675,414.697 439.239,415.039 C 438.328,415.751 437.107,415.373 436.096,415.159 L 437.332,416.857 C 438.831,418.919 436.856,419.8 435.303,420.929 C 435.835,419.395 436.113,418.048 435.385,416.469 C 435.551,415.659 434.551,414.659 434.551,414.659 Z "/>
		<path id="dp_path100" fill="#7590c1" fill-rule="evenodd" stroke="none" stroke-width="0" d="M 503.551,372.659 C 501.551,374.659 501.551,374.659 499.551,378.659 C 499.551,378.659 500.551,378.659 500.673,379.22 L 501.796,379.781 C 502.197,381.413 502.324,383.772 504.551,382.659 C 504.551,382.659 504.551,381.659 504.211,381.247 C 504.024,380.471 504.417,379.407 505.083,378.883 C 506.029,378.14 506.315,377.832 506.551,376.659 L 504.551,376.659 L 504.551,372.659 Z "/>
		<path id="dp_path101" fill="#7590c1" fill-rule="evenodd" stroke="none" stroke-width="0" d="M 443.551,431.659 C 443.551,431.659 442.551,432.659 441.701,432.959 C 440.328,433.923 439.181,434.076 437.655,433.659 L 436.551,434.659 L 436.551,435.659 L 434.551,436.659 L 435.551,438.659 L 434.551,439.659 C 437.941,438.048 440.7,435.664 443.551,433.236 L 443.551,432.447 C 443.551,432.659 443.551,431.659 443.551,431.659 Z "/>
		<path id="dp_path102" fill="#7590c1" fill-rule="evenodd" stroke="none" stroke-width="0" d="M 381.551,370.659 L 361.551,370.659 L 361.551,371.659 L 381.551,371.659 Z "/>
		<path id="dp_path103" fill="#27aade" fill-rule="evenodd" stroke="none" stroke-width="0" d="M 368.551,446.659 C 368.551,446.659 368.551,447.659 368.017,448.423 C 367.724,449.392 367.973,450.32 368.573,450.483 C 369.172,450.647 369.395,451.556 369.067,452.503 C 368.737,453.451 367.607,454.421 366.551,454.659 L 366.551,458.659 C 366.551,458.659 367.551,458.659 367.551,458.159 C 368.815,457.527 370.551,456.145 370.551,458.613 C 370.551,461.692 365.149,461.291 364.551,458.659 L 364.551,453.659 L 366.551,452.659 C 366.551,452.659 366.551,451.659 366.551,451.909 L 366.551,451.159 C 365.108,451.539 363.936,451.317 362.551,450.659 C 362.551,450.659 361.551,450.659 361.801,450.659 C 360.315,450.659 358.683,453.264 358.551,454.659 C 358.551,454.659 358.551,455.659 358.551,456.492 C 358.551,457.765 358.447,458.912 358.227,460.159 C 356.897,460.417 355.332,460.42 357.095,461.724 C 357.887,462.309 358.515,463.684 358.491,464.776 L 358.447,466.763 L 356.551,470.659 C 356.551,470.659 356.551,471.659 356.551,472.159 C 356.551,472.984 357.001,473.433 357.551,473.159 L 358.551,472.659 C 358.551,476.641 357.847,481.699 359.551,485.388 C 360.1,486.58 360.551,489.851 360.551,492.659 C 367.551,492.659 367.551,492.659 372.551,490.659 C 372.551,490.659 371.551,490.659 371.603,490.159 C 370.908,489.792 370.855,489.592 371.403,489.409 L 372.151,489.159 C 372.151,488.531 372.151,487.901 372.151,487.273 L 369.551,484.659 C 369.551,484.659 369.551,484.659 369.164,484.465 L 368.776,484.272 C 368.667,483.365 368.556,482.46 368.447,481.555 C 367.481,480.589 366.516,479.624 365.551,478.659 C 364.585,477.693 363.62,476.728 362.655,475.763 C 362.616,474.651 362.193,472.247 363.551,474.211 C 364.052,474.936 364.537,475.644 365.123,476.301 C 367.101,478.528 369.636,479.509 370.551,482.659 C 370.551,482.659 370.551,482.659 370.689,482.589 L 370.827,482.52 C 373.804,476.236 376.836,469.983 379.947,463.763 C 380.784,462.088 381.084,457.905 383.447,458.659 C 384.291,458.236 385.521,457.743 384.551,456.659 C 384.551,456.659 383.551,456.659 383.801,456.284 L 383.051,455.909 C 382.064,456.403 381.06,456.857 380.653,455.369 C 380.301,454.08 379.989,453.641 378.945,452.801 C 378.079,452.104 377.205,451.416 376.324,450.736 C 375.02,449.731 374.763,450.549 374.444,451.717 C 372.927,450.109 370.908,446.881 368.551,446.659 Z "/>
		<path id="dp_path104" fill="#27aade" fill-rule="evenodd" stroke="none" stroke-width="0" d="M 442.551,408.659 C 441.464,404.956 437.716,403.293 434.551,401.711 C 431.788,400.329 427.339,399.213 424.281,400.136 C 423.551,400.659 422.551,400.659 422.551,400.659 C 422.551,400.659 422.551,401.659 422.551,401.421 L 422.551,402.185 L 420.603,402.921 L 418.655,403.659 C 420.537,404.052 422.631,404.181 424.301,405.159 C 426.48,407.773 430.129,410.103 430.869,413.492 L 431.328,411.811 C 432.097,408.989 434.421,413.288 434.551,414.659 C 434.551,414.659 435.551,415.659 435.385,416.469 C 436.113,418.048 435.835,419.395 435.303,420.929 C 436.856,419.8 438.831,418.919 437.332,416.857 L 436.096,415.159 C 437.107,415.373 438.328,415.751 439.239,415.039 C 439.675,414.697 440.219,415.107 440.448,415.948 C 441.116,418.396 442.757,419.185 444.551,416.659 C 444.551,414.595 443.171,412.295 441.488,411.033 C 439.767,409.743 439.832,409.597 442.551,408.659 Z "/>
		<path id="dp_path105" fill="#27aade" fill-rule="evenodd" stroke="none" stroke-width="0" d="M 417.551,485.659 C 417.551,485.659 417.551,485.659 417.551,485.159 L 417.551,484.659 C 407.252,484.659 396.953,484.659 386.655,484.659 C 383.645,485.035 379.648,486.115 376.783,484.799 C 375.573,484.241 374.707,484.348 374.331,485.099 C 373.221,487.319 377.284,487.327 378.373,487.096 C 379.112,486.94 379.896,486.659 380.655,486.659 L 390.551,488.659 L 394.551,488.659 C 397.551,486.659 397.551,486.659 407.551,486.659 L 417.551,486.659 Z "/>
		<path id="dp_path106" fill="#27aade" fill-rule="evenodd" stroke="none" stroke-width="0" d="M 396.551,434.659 C 396.551,434.659 395.551,434.659 395.801,434.659 L 395.051,434.659 C 394.643,433.843 393.832,431.519 392.551,432.159 C 392.001,432.433 391.797,433.152 392.099,433.755 C 392.4,434.357 391.725,435.077 390.599,435.355 C 388.828,435.791 388.551,436.644 388.551,441.659 C 388.551,441.659 388.551,440.659 389.051,440.211 L 389.551,438.763 C 389.952,440.228 390.355,441.693 390.756,443.159 C 390.797,443.159 390.837,443.159 390.877,443.159 C 389.891,446.009 388.648,451.685 392.551,452.749 C 392.551,449.577 391.792,445.539 395.029,443.92 C 396.821,441.149 397.227,439.053 396.551,435.659 Z "/>
		<path id="dp_path107" fill="#27aade" fill-rule="evenodd" stroke="none" stroke-width="0" d="M 507.551,396.659 L 505.551,399.659 C 507.917,405.263 509.864,410.871 511.715,416.659 L 512.133,416.659 C 512.551,416.659 512.551,416.659 512.551,416.659 C 512.551,415.659 512.551,415.659 513.551,412.659 L 512.551,410.659 L 515.551,409.659 C 515.551,409.659 514.551,409.659 514.233,409.027 C 513.509,408.679 512.783,407.641 512.62,406.72 C 512.403,405.488 512.416,405.092 511.304,404.536 C 510.743,404.255 510.496,402.541 510.755,400.728 C 511.168,397.833 510.9,397.337 508.551,396.659 Z "/>
		<path id="dp_path108" fill="#27aade" fill-rule="evenodd" stroke="none" stroke-width="0" d="M 428.551,436.659 C 426.017,436.659 423.484,436.659 420.951,436.659 C 421.151,437.027 421.351,437.395 421.551,437.763 L 422.551,440.659 C 424.551,440.659 426.551,440.659 428.551,440.659 C 429.773,440.659 430.899,440.405 432.103,440.159 C 432.551,439.659 433.551,439.659 434.551,439.659 L 435.551,438.659 L 434.551,436.659 C 433.551,436.659 433.551,436.659 432.551,436.659 L 430.551,438.659 Z "/>
		<path id="dp_path109" fill="#27aade" fill-rule="evenodd" stroke="none" stroke-width="0" d="M 353.551,458.659 C 351.551,458.659 351.551,458.659 349.551,460.659 C 349.551,460.659 350.551,461.659 350.248,462.508 C 351.081,464.715 354.128,468.429 356.551,468.659 C 356.551,464.659 356.551,464.659 353.551,458.659 Z "/>
		<path id="dp_path110" fill="#27aade" fill-rule="evenodd" stroke="none" stroke-width="0" d="M 444.551,380.659 C 444.551,380.659 443.551,380.659 443.756,380.659 L 442.963,380.659 C 442.749,381.863 442.537,383.067 442.325,384.272 C 441.117,385.304 439.907,386.509 438.279,386.796 C 437.521,386.928 436.744,387.767 436.551,388.659 C 440.551,390.659 440.551,390.659 441.551,390.659 Z "/>
		<path id="dp_path111" fill="#27aade" fill-rule="evenodd" stroke="none" stroke-width="0" d="M 518.551,357.659 L 516.551,360.659 L 516.551,365.659 C 516.551,365.659 517.551,366.659 518.315,366.327 C 520.635,367.205 521.285,363.313 519.653,362.868 C 519.04,362.701 518.551,360.385 518.551,357.659 Z "/>
		<path id="dp_path112" fill="#27aade" fill-rule="evenodd" stroke="none" stroke-width="0" d="M 462.551,366.659 L 462.551,367.659 C 463.551,367.659 463.551,367.659 482.551,367.659 L 482.551,366.659 Z "/>
		<path id="dp_path113" fill="#27aade" fill-rule="evenodd" stroke="none" stroke-width="0" d="M 402.499,449.659 C 401.105,449.659 400.339,449.805 399.103,450.659 C 397.16,452 399.645,452.275 400.884,452.659 C 403.015,452.659 405.147,452.659 407.277,452.659 C 406.536,452.076 405.793,451.492 405.051,450.909 L 404.248,450.284 C 403.807,449.94 403.02,449.659 402.499,449.659 Z "/>
		<path id="dp_path114" fill="#27aade" fill-rule="evenodd" stroke="none" stroke-width="0" d="M 408.551,411.659 L 406.551,415.659 C 406.551,415.659 407.551,415.659 407.351,415.259 C 407.791,415.039 408.375,415.307 408.648,415.853 C 409.276,417.109 414.327,416.267 411.999,414.659 C 410.711,413.769 409.66,412.768 408.551,411.659 Z "/>
		<path id="dp_path115" fill="#27aade" fill-rule="evenodd" stroke="none" stroke-width="0" d="M 458.551,431.659 L 456.551,435.659 C 456.551,435.659 456.551,435.659 457.051,435.659 C 457.252,435.659 457.453,435.659 457.655,435.659 L 460.551,434.659 C 460.551,434.659 461.551,434.659 461.273,434.048 C 462.656,432.877 459.137,431.82 458.551,431.659 Z "/>
		<path id="dp_path116" fill="#27aade" fill-rule="evenodd" stroke="none" stroke-width="0" d="M 498.369,351.659 C 498.219,351.109 496.848,350.659 495.324,350.659 C 493.799,350.659 492.623,350.996 492.709,351.409 C 493.033,352.936 495.296,352.659 496.596,352.659 C 497.721,352.659 498.519,352.209 498.369,351.659 Z "/>
		<path id="dp_path117" fill="#fefefe" fill-rule="evenodd" stroke="none" stroke-width="0" d="M 436.551,388.659 C 435.551,388.659 433.551,388.659 432.603,388.159 C 427.061,387.457 420.34,387.723 415.077,389.749 C 411.548,391.109 407.637,392.572 404.947,395.263 C 400.755,399.455 397.156,403.74 395.551,409.555 C 394.287,414.612 393.551,419.444 393.551,424.659 C 394.551,427.659 394.551,427.659 396.551,434.659 L 396.551,435.659 C 398.551,438.659 398.551,438.659 408.551,448.659 C 410.551,449.659 410.551,449.659 416.551,452.659 C 419.551,453.659 419.551,453.659 425.551,453.659 C 432.551,452.659 432.551,452.659 436.551,452.659 C 436.551,452.659 436.551,452.659 436.603,452.607 L 436.655,452.555 C 444.636,448.761 451.843,443.328 456.551,435.659 L 458.551,431.659 C 458.551,430.659 458.551,428.659 459.051,427.211 C 459.704,421.4 459.672,414.897 457.547,409.399 C 455.781,404.836 453.413,401.2 450.107,397.687 C 448.467,395.945 447.153,394.46 445.023,393.395 C 443.511,392.639 442.652,391.943 441.551,390.659 C 440.551,390.659 440.551,390.659 436.551,388.659 Z M 442.551,408.659 C 441.464,404.956 437.716,403.293 434.551,401.711 C 431.788,400.329 427.339,399.213 424.281,400.136 C 423.551,400.659 422.551,400.659 422.551,400.659 C 419.187,400.772 417.632,402.912 415.103,404.659 C 414.333,405.191 413.595,405.659 412.655,405.659 C 411.571,406.549 410.74,407.524 409.908,408.668 C 409.161,409.693 408.551,410.787 408.551,411.096 C 408.551,411.659 408.551,411.659 408.551,411.659 L 406.551,415.659 C 405.589,420.813 406.049,426.916 409.499,431.159 C 410.668,432.597 411.488,433.791 411.805,435.588 L 414.125,437.124 C 416.305,438.565 418.664,439.623 421.051,440.659 L 421.801,440.659 C 421.551,440.659 422.551,440.659 422.551,440.659 C 424.551,440.659 426.551,440.659 428.551,440.659 C 429.773,440.659 430.899,440.405 432.103,440.159 C 432.551,439.659 433.551,439.659 434.551,439.659 C 437.941,438.048 440.7,435.664 443.551,433.236 L 443.551,432.447 C 443.551,432.659 443.551,431.659 443.551,431.659 L 444.551,431.659 C 444.551,431.159 444.551,430.659 444.551,430.159 C 444.551,429.659 444.551,429.659 444.551,429.659 C 445.692,427.669 446.903,424.301 447.241,422.176 C 447.579,420.051 447.563,418.164 447.203,417.985 C 446.551,417.659 446.551,417.659 446.551,417.659 C 446.551,414.369 444.996,411.5 443.551,408.659 L 443.051,408.659 C 442.551,408.659 442.551,408.659 442.551,408.659 Z "/>
		<path id="dp_path118" fill="#fefefe" fill-rule="evenodd" stroke="none" stroke-width="0" d="M 505.551,399.659 C 505.551,399.659 505.551,399.659 505.499,399.107 L 505.447,398.555 C 504.083,395.779 502.699,393.048 501.597,390.159 C 500.163,386.393 496.505,387.563 495.057,390.607 C 493.671,393.521 492.676,396.493 491.655,399.555 C 489.463,404.671 486.872,409.676 485.535,415.099 C 484.576,418.992 483.239,422.543 481.732,426.252 C 478.445,418.253 475.741,410.304 475.447,401.555 C 474.227,397.256 473.007,392.957 471.787,388.659 C 468.819,388.659 465.852,388.659 462.884,388.659 C 460.524,389.075 460.383,390.175 460.776,392.651 C 461.085,394.587 462.487,399.407 463.892,403.363 L 466.447,410.555 C 467.033,415.023 467.549,419.547 469.551,423.659 C 470.593,425.801 471.943,431.651 472.551,436.659 C 474.551,440.659 474.551,440.659 474.551,444.659 C 474.551,445.659 475.551,447.659 476.003,448.755 C 476.9,451.283 478.223,453.04 479.459,453.344 C 480.905,453.7 482.041,452.955 483.551,450.659 C 483.551,449.659 484.551,447.659 484.551,447.211 C 485.331,444.523 486.329,442.165 487.551,439.659 C 489.335,436.027 491.008,432.401 492.551,428.659 C 492.551,428.659 492.551,427.659 492.551,427.376 L 492.551,426.095 C 493.516,424.651 494.481,423.207 495.447,421.763 L 496.52,417.432 C 497.111,415.051 497.999,412.991 498.495,412.856 C 498.989,412.721 500.815,417.132 502.551,422.659 C 502.551,422.659 502.551,422.659 503.035,422.659 L 503.519,422.659 C 504.443,426.809 505.901,430.732 507.551,434.659 C 507.551,434.659 507.551,435.659 508.1,436.107 L 508.649,437.553 C 510.439,440.853 512.26,443.996 513.447,447.555 L 514.551,452.659 L 517.551,453.659 L 520.551,450.659 C 520.551,450.659 520.551,449.659 520.603,449.607 C 520.796,445.731 522.496,441.849 524.551,438.659 C 524.551,438.659 524.551,437.659 524.551,437.211 L 524.551,435.763 C 525.217,433.728 525.884,431.693 526.551,429.659 C 527.217,427.325 527.884,424.992 528.551,422.659 C 529.8,418.844 530.957,415.039 531.999,411.159 C 533.613,405.139 536.391,398.935 536.551,392.659 C 536.551,392.659 536.551,392.659 537.001,392.183 L 537.452,391.708 L 536.924,390.183 C 536.533,389.051 534.892,388.659 530.551,388.659 C 529.101,388.659 526.793,388.325 525.587,389.273 C 525.105,389.651 524.321,391.341 523.551,393.659 C 523.551,394.659 523.551,394.659 522.551,397.659 C 522.551,398.659 522.551,398.659 522.551,399.659 L 520.551,405.659 C 520.551,405.659 520.551,406.659 520.551,407.409 L 520.551,409.159 C 520.183,410.693 519.815,412.228 519.447,413.763 C 518.34,417.283 517.233,420.801 516.127,424.32 C 515.116,424.595 514.655,424.347 514.564,423.133 C 514.5,422.265 513.593,419.351 512.551,416.659 C 512.551,416.659 512.551,416.659 512.133,416.659 L 511.715,416.659 C 509.864,410.871 507.917,405.263 505.551,399.659 Z "/>
		<path id="dp_path119" fill="#fefefe" fill-rule="evenodd" stroke="none" stroke-width="0" d="M 350.551,401.659 C 348.252,399.36 345.953,397.061 343.655,394.763 C 341.617,392.725 337.823,387.177 334.28,388.24 C 332.704,388.713 332.551,390.869 332.551,412.659 L 332.551,444.659 L 333.551,452.659 L 340.551,452.659 C 341.551,452.659 342.551,452.659 342.551,452.659 C 344.484,452.659 344.551,451.992 344.551,432.484 L 344.551,412.309 C 351.869,420.128 358.98,428.088 366.551,435.659 L 367.103,436.211 C 367.407,436.515 369.859,439.416 372.551,442.659 C 372.551,442.659 372.551,442.659 372.603,442.711 L 372.655,442.763 L 377.44,447.885 C 380.071,450.703 383.271,453.3 384.551,453.659 L 386.551,452.659 L 386.551,448.659 L 386.551,428.659 C 386.551,415.321 386.879,401.972 386.04,388.659 L 374.551,388.659 C 374.551,401.192 374.551,413.725 374.551,426.259 C 373.848,425.877 373.147,425.493 372.447,425.107 L 371.447,424.555 C 364.464,416.937 357.497,409.308 350.551,401.659 Z "/>
	</g>
</svg>